<svg width="16" height="12" viewBox="0 0 16 12" fill="none" xmlns="http://www.w3.org/2000/svg">
<g clip-path="url(#clip0_4_8479)">
<path d="M11.4986 5.03621L5.02102 11.5273C4.77714 11.7717 4.38142 11.7721 4.13714 11.5282C3.8928 11.2844 3.89239 10.8887 4.1362 10.6444L10.6143 4.15278C10.858 3.90909 10.858 3.51259 10.6138 3.26843L4.1362 -3.22269C3.89239 -3.46703 3.8928 -3.86275 4.13714 -4.10656C4.25911 -4.22831 4.41889 -4.28915 4.57861 -4.28915C4.73876 -4.28915 4.89892 -4.22797 5.02101 -4.10562L11.4982 2.38503C12.2292 3.11609 12.2292 4.30562 11.4986 5.03621Z" fill="#121212"/>
</g>
<defs>
<clipPath id="clip0_4_8479">
<rect width="16" height="11.131" fill="white" transform="matrix(1 -6.08189e-08 -1.25664e-07 -1 0 11.7108)"/>
</clipPath>
</defs>
</svg>
