<svg width="16" height="12" viewBox="0 0 16 12" fill="none" xmlns="http://www.w3.org/2000/svg">
<g clip-path="url(#clip0_4_8473)">
<path d="M4.50148 7.25462L10.9791 0.763498C11.223 0.519155 11.6187 0.51878 11.863 0.762592C12.1073 1.0064 12.1077 1.40212 11.8639 1.64647L5.38583 8.13806C5.14214 8.38174 5.14214 8.77824 5.38629 9.0224L11.8639 15.5135C12.1077 15.7579 12.1073 16.1536 11.863 16.3974C11.741 16.5191 11.5812 16.58 11.4215 16.58C11.2614 16.58 11.1012 16.5188 10.9791 16.3965L4.50195 9.9058C3.77089 9.17474 3.77089 7.98521 4.50148 7.25462Z" fill="#86BC42"/>
</g>
<defs>
<clipPath id="clip0_4_8473">
<rect width="16" height="11.131" fill="white" transform="matrix(-1 0 0 1 16 0.580002)"/>
</clipPath>
</defs>
</svg>
