<svg width="20" height="14" viewBox="0 0 20 14" fill="none" xmlns="http://www.w3.org/2000/svg">
<path d="M1.17758 8.00439C1.30105 7.89966 1.48586 7.91493 1.59051 8.03829C1.69515 8.16169 1.68 8.34662 1.55656 8.45122C0.922459 8.98904 0.586795 9.59095 0.585936 10.1919C0.58535 10.5954 0.729999 10.9364 1.02816 11.2345C1.52672 11.7331 2.45441 12.1045 3.78547 12.3385C4.98035 12.5484 6.4768 12.6503 8.36172 12.6466C11.2718 12.6426 13.3247 12.3908 14.6092 11.8788C14.1144 11.5267 13.5851 11.1042 13.0174 10.6083C12.8456 10.8139 12.5992 10.9498 12.323 10.9777C11.7495 11.0356 11.2333 10.611 11.1779 10.034C11.1409 9.64818 11.1401 9.25966 11.175 8.87685C10.6607 8.3638 10.1969 7.87951 9.77992 7.42013C9.54508 7.82208 9.38336 8.24572 9.29859 8.68396C9.22621 9.05744 9.20836 9.44408 9.24559 9.83322C9.30059 10.4098 8.87945 10.926 8.30453 10.984C7.73234 11.0418 7.22027 10.6204 7.1643 10.0395C7.10742 9.44974 7.13492 8.85947 7.24601 8.28505C7.3632 7.68005 7.57402 7.09595 7.87359 6.5422C7.31101 6.55978 6.76074 6.60552 6.22957 6.67833C5.74047 7.2981 5.43883 7.97298 5.33355 8.68607C5.27801 9.06244 5.27754 9.44939 5.33226 9.83622C5.41332 10.4098 5.0157 10.9444 4.44562 11.0281C3.88 11.1111 3.34363 10.7144 3.26199 10.1368C3.1789 9.54896 3.17996 8.9581 3.26519 8.38072C3.31648 8.03337 3.39898 7.6897 3.5114 7.35322C3.22 7.46509 2.94223 7.58755 2.68074 7.7206C2.53875 7.79286 2.36109 7.73837 2.28679 7.59236C2.2134 7.44818 2.27082 7.27177 2.41504 7.19837C4.02508 6.379 6.25082 5.9274 8.53851 5.94872C8.38086 5.74443 8.23402 5.54533 8.09789 5.35115C7.2398 4.12708 6.82266 3.12396 6.82266 2.28451C6.82266 1.70732 7.02344 1.21439 7.41937 0.819545C8.24781 -0.00666553 9.65035 -0.136861 11.3685 0.452866C13.0165 1.01849 14.7822 2.18576 16.3403 3.73958C18.5977 5.99083 20 8.63423 20 10.6382C20 11.4693 19.747 12.1609 19.2683 12.6383C18.8712 13.0342 18.3829 13.2322 17.8072 13.2321C17.1978 13.2321 16.4904 13.0103 15.6895 12.5668C15.5254 12.476 15.3568 12.3755 15.1839 12.2659C13.8479 12.9116 11.613 13.2281 8.36254 13.2325C6.50457 13.235 4.88574 13.1267 3.68406 12.9156C2.21168 12.6568 1.20742 12.2425 0.613865 11.6489C0.20574 11.2408 -0.000782881 10.7503 3.74317e-05 10.1911C0.00113118 9.41294 0.408318 8.65681 1.17758 8.00439V8.00439ZM4.23242 7.10658C4.04398 7.54607 3.9132 8.00271 3.84476 8.46626C3.76773 8.98806 3.76683 9.52255 3.84211 10.0548C3.87812 10.3096 4.10976 10.4851 4.36078 10.4483C4.61262 10.4113 4.78812 10.1735 4.75207 9.91826C4.68949 9.47579 4.69012 9.03243 4.75391 8.60048C4.84644 7.97357 5.06992 7.37501 5.41922 6.81322C5.00777 6.89423 4.61094 6.99216 4.23242 7.10658V7.10658ZM11.7612 9.97806C11.784 10.2172 11.9795 10.3973 12.2163 10.3973C12.3613 10.3973 12.4928 10.3308 12.5796 10.2183C12.307 9.97068 12.0257 9.70701 11.7357 9.42704C11.7353 9.61064 11.7436 9.79466 11.7612 9.97806ZM7.82125 8.39634C7.72086 8.91552 7.69601 9.44943 7.7475 9.98353C7.77211 10.239 7.9957 10.4263 8.24789 10.4008C8.5009 10.3753 8.68676 10.1456 8.66226 9.88896C8.61973 9.44396 8.64027 9.00111 8.72328 8.57259C8.83226 8.00919 9.05062 7.46861 9.37281 6.96236C9.25004 6.8213 9.13172 6.68255 9.01816 6.54622C8.86469 6.5404 8.7098 6.53615 8.5541 6.53462C8.19379 7.1197 7.94734 7.74529 7.82125 8.39634ZM12.5919 1.63173C12.1482 1.80923 11.7332 2.03951 11.3574 2.31861C10.934 2.63314 10.5555 3.0104 10.2323 3.44001C10.0878 3.63204 10.1107 3.89685 10.2856 4.05599C10.4864 4.23876 10.8076 4.20579 10.9723 3.98685C11.2409 3.62974 11.5548 3.31669 11.9054 3.05638C12.4138 2.67872 12.9948 2.41353 13.6386 2.26326C13.2904 2.02978 12.9405 1.81861 12.5919 1.63173ZM18.3402 7.27888C17.8829 7.43689 17.4533 7.65029 17.0607 7.91544C16.6236 8.21068 16.2284 8.57064 15.8862 8.9854C15.7332 9.17091 15.744 9.43677 15.9115 9.6038C16.1036 9.79533 16.4257 9.77673 16.5999 9.56556C16.8844 9.22083 17.2121 8.92208 17.5739 8.67771C17.936 8.43314 18.336 8.24287 18.7656 8.1081C18.6402 7.83466 18.4982 7.55759 18.3402 7.27888V7.27888ZM15.9734 12.0543C17.2932 12.7852 18.2357 12.8406 18.8545 12.2234C19.2258 11.8531 19.4141 11.3198 19.4141 10.6382C19.4141 10.0396 19.2661 9.36345 18.9936 8.65087C18.598 8.76947 18.2314 8.94076 17.9019 9.16329C17.5866 9.37622 17.3006 9.63704 17.0519 9.93849C16.6591 10.4146 15.9326 10.4522 15.4978 10.0186C15.115 9.63701 15.0877 9.03247 15.4343 8.61247C15.8123 8.15443 16.2491 7.75658 16.7327 7.42993C17.1344 7.15868 17.5707 6.93708 18.0331 6.76704C17.793 6.38681 17.5255 6.00611 17.2328 5.63017C16.6343 5.66392 15.8152 5.81884 15.0598 6.32908C14.7445 6.54197 14.4585 6.80279 14.2098 7.10419C13.8405 7.55177 13.1775 7.61759 12.7323 7.25365C12.2839 6.88708 12.2239 6.22443 12.5922 5.77822C12.8249 5.49615 13.0826 5.23435 13.3581 5.00009C13.4813 4.89533 13.6662 4.91021 13.7711 5.03349C13.8759 5.15673 13.8609 5.34165 13.7377 5.44646C13.4884 5.65845 13.255 5.89552 13.0442 6.15111C12.8805 6.34954 12.9069 6.63943 13.1033 6.79997C13.3002 6.96099 13.5939 6.93013 13.7579 6.73122C14.0424 6.3865 14.37 6.08779 14.7319 5.84345C15.3253 5.44263 16.0273 5.1847 16.787 5.08415C16.5546 4.81232 16.3096 4.54462 16.0531 4.28298C15.6187 4.38634 15.2037 4.53626 14.8177 4.73025C14.6755 4.80173 14.498 4.74638 14.4244 4.60005C14.3518 4.45548 14.41 4.27939 14.5546 4.20673C14.8759 4.04529 15.215 3.91208 15.5671 3.80712C15.1571 3.42208 14.7352 3.06517 14.3073 2.74068C13.5235 2.83318 12.8333 3.09708 12.2548 3.52673C11.9493 3.75361 11.6754 4.02693 11.4405 4.33912C11.0694 4.83244 10.3443 4.90162 9.89129 4.48939C9.49141 4.12548 9.43672 3.52294 9.76406 3.08779C10.121 2.6133 10.5396 2.19626 11.0081 1.84826C11.2899 1.63896 11.5912 1.45431 11.9086 1.29587C11.663 1.18638 11.4192 1.08982 11.1782 1.00708C10.5285 0.784076 9.93703 0.673217 9.42133 0.673217C8.75 0.673217 8.20726 0.861186 7.83301 1.23443C7.54734 1.51931 7.40848 1.86279 7.40848 2.28451C7.40848 2.98958 7.8018 3.90818 8.57758 5.01482C8.96531 5.5679 9.4523 6.21392 9.95328 6.73529C11.6989 8.55189 13.8133 10.858 15.9734 12.0543V12.0543Z" fill="#121212"/>
</svg>
