<svg width="20" height="16" viewBox="0 0 20 16" fill="none" xmlns="http://www.w3.org/2000/svg">
<path d="M0.0527747 8.02935C1.71853 5.0475 4.45694 3.22413 7.66661 2.88624C9.2758 0.853804 14.3251 0.338918 14.543 0.317707C14.685 0.303058 14.8279 0.364895 14.9149 0.480481C15.0024 0.595248 15.024 0.747397 14.9719 0.882085C14.4768 2.16709 13.9697 3.6287 13.8355 4.22668C14.7524 4.64625 15.5538 5.09242 16.0705 5.46422C17.1912 3.6714 19.4787 3.64902 19.5833 3.64902C19.8136 3.64902 20 3.83538 20 4.0657C20 6.47985 19.1585 7.69162 18.5958 8.2324C19.1585 8.77315 20 9.98491 20 12.3991C20 12.6294 19.8136 12.8157 19.5833 12.8157C19.4787 12.8157 17.1911 12.7934 16.0705 11.0005C15.3841 11.4945 14.1972 12.1192 12.9002 12.6385C13.1868 13.102 13.3333 13.8393 13.3333 14.8991C13.3333 15.1294 13.1469 15.3158 12.9166 15.3158C12.7927 15.3158 9.95924 15.2912 8.54814 13.6359C4.95944 13.5666 1.86927 11.6871 0.0527747 8.43541C-0.0176163 8.30928 -0.0176163 8.15549 0.0527747 8.02935ZM13.9489 1.23041C12.5489 1.43306 10.2504 1.93166 8.9515 2.82413C10.1492 2.87093 11.6773 3.32374 13.0626 3.89195C13.247 3.15952 13.6563 2.01526 13.9489 1.23041ZM12.4902 14.4584C12.4347 13.2994 12.1673 13.0032 12.0923 12.9425C11.2803 13.2275 10.4577 13.454 9.71068 13.5677C10.6146 14.2037 11.8467 14.4016 12.4902 14.4584ZM12.1407 12.9272L12.1405 12.9261C12.1394 12.9265 12.1382 12.9268 12.1371 12.9272C12.1394 12.9269 12.1382 12.9276 12.1407 12.9272ZM8.74993 12.8157C11.1848 12.8157 15.166 10.8166 15.9033 10.0622C15.9822 9.98124 16.0901 9.9369 16.2011 9.9369C16.2264 9.9369 16.252 9.93937 16.2772 9.94382C16.4136 9.96905 16.5287 10.061 16.5837 10.1884C17.146 11.4925 18.4684 11.8485 19.1557 11.9458C19.0255 9.33467 17.7897 8.63686 17.7262 8.60307C17.5891 8.53268 17.5045 8.39064 17.5024 8.23646C17.5004 8.0806 17.5879 7.93537 17.7258 7.86213C17.7816 7.83244 19.0247 7.13947 19.1557 4.52144C18.4689 4.62195 17.1415 4.98328 16.5837 6.27641C16.5287 6.40376 16.4136 6.49575 16.2772 6.52095C16.1397 6.54657 16.0001 6.50181 15.9033 6.40255C15.166 5.64813 11.1848 3.64902 8.74993 3.64902C5.46011 3.64902 2.61056 5.31609 0.896686 8.23236C2.61056 11.1487 5.46011 12.8157 8.74993 12.8157Z" fill="#121212"/>
<path d="M7.50041 8.23234C7.50041 6.31502 6.74397 5.14068 6.73623 5.12888C6.6101 4.93681 6.66299 4.67884 6.85424 4.55188C7.04549 4.42575 7.30346 4.47743 7.43041 4.66786C7.46745 4.72321 8.33374 6.04806 8.33374 8.23234C8.33374 10.4166 7.46745 11.7415 7.43041 11.7968C7.35026 11.9172 7.21799 11.9824 7.08334 11.9824C7.00401 11.9824 6.92385 11.9596 6.85264 11.9124C6.661 11.7846 6.60932 11.5262 6.73709 11.3345C6.74479 11.3232 7.50041 10.1672 7.50041 8.23234Z" fill="#121212"/>
<path d="M8.52025 4.55191C8.7119 4.42578 8.96909 4.47746 9.09643 4.66789C9.13346 4.72321 9.99976 6.04809 9.99976 8.23233C9.99976 9.39893 9.74831 10.3157 9.5371 10.8792C9.47444 11.0464 9.31573 11.1498 9.14686 11.1498C9.09842 11.1498 9.04881 11.1412 9.00077 11.1234C8.7851 11.0428 8.67604 10.8027 8.75662 10.5871C8.94338 10.0878 9.16639 9.27397 9.16639 8.23233C9.16639 6.31501 8.40994 5.14067 8.40221 5.12887C8.27611 4.93684 8.329 4.67887 8.52025 4.55191Z" fill="#121212"/>
<path d="M4.99993 7.81561C4.53969 7.81561 4.1666 7.44251 4.1666 6.98228C4.1666 6.52205 4.53969 6.14896 4.99993 6.14896C5.46016 6.14896 5.83325 6.52205 5.83325 6.98228C5.83325 7.44251 5.46016 7.81561 4.99993 7.81561Z" fill="#121212"/>
</svg>
