<svg width="20" height="19" viewBox="0 0 20 19" fill="none" xmlns="http://www.w3.org/2000/svg">
<path d="M0.00408656 10.2701C0.0296359 9.21082 0.136238 8.22086 0.320876 7.3277C0.423986 6.82886 1.20118 6.98874 1.09791 7.48834C0.922833 8.33504 0.821747 9.27739 0.797308 10.2892C0.758627 11.8931 1.00809 13.2854 1.53872 14.4275C2.38684 16.2529 4.04541 17.4555 6.00581 17.8143C6.01596 17.8161 6.94836 17.9797 8.24562 17.7133C7.71163 17.3678 7.05175 16.8433 6.45419 16.0904C4.59488 13.7478 4.57592 10.6405 5.36081 7.87773C5.85553 6.13629 6.55889 4.41266 7.64648 2.95257C5.95852 2.09568 4.75984 2.42258 4.70874 2.43722C4.69728 2.44083 4.69287 2.4419 4.68113 2.44444C4.62499 2.45738 3.29389 2.7815 2.19606 4.56845C1.92723 5.00593 1.25386 4.58627 1.51999 4.15308C2.75564 2.14186 4.31427 1.71649 4.49538 1.673C4.6707 1.62444 6.17216 1.25866 8.15668 2.324C9.13581 1.21684 10.4826 0.201892 11.9955 0.0453425C13.1219 -0.0711769 14.2482 0.357489 15.1759 0.970198C16.031 1.53498 16.8072 2.324 17.4827 3.31526C18.3147 4.53604 18.9967 6.07106 19.51 7.87765C20.2949 10.6404 20.2759 13.7477 18.4166 16.0903C17.2161 17.6028 15.7638 18.1944 15.5869 18.2624C13.6511 19.135 11.2259 19.015 9.28021 18.2609C8.1998 18.6074 7.00477 18.7907 5.87727 18.5972C3.68915 18.3441 1.74847 16.7419 0.831307 14.7877C0.240458 13.5289 -0.0378477 12.009 0.00408656 10.2701V10.2701ZM15.2658 17.5369C15.2755 17.5323 15.2861 17.5279 15.2962 17.5242C15.3101 17.519 16.7055 16.9866 17.8182 15.5678C19.4948 13.43 19.4571 10.5952 18.7467 8.09462C17.6555 4.25369 15.9931 2.47932 14.7907 1.66717C13.791 0.991978 12.8616 0.817774 12.4818 0.817774C12.4711 0.817774 12.4608 0.817893 12.4509 0.818171C12.4406 0.818607 12.4302 0.818607 12.4199 0.818171C12.3782 0.816783 8.21353 0.739777 6.12411 8.09458C5.41365 10.5953 5.376 13.4299 7.05254 15.5677C8.16525 16.9866 9.56062 17.5189 9.5738 17.5238C11.328 18.1694 13.5218 18.3445 15.2658 17.5369V17.5369Z" fill="#121212"/>
<path d="M8.09812 11.9984C8.09812 9.60662 10.044 7.66074 12.4358 7.66074C13.106 7.66074 13.7487 7.80956 14.3461 8.10302C14.8033 8.32761 14.4542 9.04001 13.9963 8.81519C13.5086 8.57564 12.9836 8.45416 12.4358 8.45416C10.4815 8.45416 8.89158 10.0441 8.89158 11.9984C8.89158 13.9527 10.4815 15.5426 12.4358 15.5426C14.3901 15.5426 15.98 13.9527 15.98 11.9984C15.98 11.6416 15.9273 11.2897 15.8232 10.9524C15.6731 10.4656 16.4311 10.2311 16.5815 10.7185C16.7088 11.1316 16.7734 11.5623 16.7734 11.9984C16.7734 14.3902 14.8276 16.3361 12.4358 16.3361C10.044 16.3361 8.09812 14.3902 8.09812 11.9984Z" fill="#121212"/>
<path d="M15.7948 9.62858C15.7306 9.78521 15.5678 9.88467 15.3995 9.87261C15.2272 9.86031 15.0797 9.73201 15.0419 9.56383C14.9641 9.21796 15.3661 8.94874 15.6568 9.1529C15.8067 9.25815 15.8653 9.45933 15.7948 9.62858Z" fill="#121212"/>
<path d="M1.52041 5.63463C1.71457 5.92559 1.4461 6.31966 1.10361 6.24146C0.938924 6.20385 0.812168 6.06222 0.795823 5.89349C0.779875 5.72865 0.871281 5.56702 1.02109 5.49613C1.19565 5.41353 1.4142 5.47225 1.52041 5.63463V5.63463Z" fill="#121212"/>
</svg>
