<svg width="18" height="11" viewBox="0 0 18 11" fill="none" xmlns="http://www.w3.org/2000/svg">
<path d="M0.806815 4.17276C1.19428 3.40698 2.05639 2.74518 3.36928 2.20581C4.43158 1.76936 5.59334 1.49366 6.38088 1.33917C6.85287 1.24663 7.34748 1.16397 7.851 1.09358C8.06455 1.06342 8.26205 1.21264 8.29197 1.42635C8.32186 1.64003 8.17287 1.83741 7.9592 1.86729C7.46975 1.93573 6.98931 2.016 6.53123 2.10585C3.84803 2.63206 2.01564 3.51397 1.50392 4.52538C1.39642 4.73792 1.34416 4.96678 1.34416 5.22507C1.34416 6.51417 2.39295 7.56296 3.68209 7.56296C4.98553 7.56296 6.25127 7.77597 7.55166 8.21421C8.11174 8.403 8.65557 8.62866 9.18146 8.84694C9.52932 8.99128 9.889 9.14057 10.246 9.27585C11.147 9.61733 11.8376 9.76304 12.5551 9.76304C14.8167 9.76304 16.6567 7.92307 16.6567 5.66147C16.6567 3.39983 14.8167 1.55983 12.5551 1.55983C12.1138 1.55983 11.6659 1.56819 11.2238 1.58467C11.1488 1.58745 11.0737 1.59046 10.9985 1.59378C10.7831 1.60354 10.6005 1.43628 10.591 1.22073C10.5815 1.00522 10.7485 0.822759 10.964 0.813267C11.041 0.809869 11.1179 0.806783 11.1947 0.803931C11.6465 0.787095 12.1042 0.77858 12.5551 0.77858C15.2475 0.77858 17.438 2.96901 17.438 5.66147C17.438 8.35386 15.2476 10.5443 12.5551 10.5443C11.7373 10.5443 10.964 10.3834 9.9692 10.0064C9.6008 9.86679 9.23541 9.71514 8.88201 9.56846C8.36822 9.35526 7.83693 9.13475 7.30217 8.95452C6.0835 8.54382 4.89935 8.34417 3.68209 8.34417C1.96217 8.34425 0.562908 6.94499 0.562908 5.2251C0.562908 4.84143 0.642713 4.49721 0.806815 4.17276Z" fill="#121212"/>
</svg>
