<svg width="20" height="19" viewBox="0 0 20 19" fill="none" xmlns="http://www.w3.org/2000/svg">
<path d="M0.121877 7.8718C0.138127 7.78282 0.184728 7.70219 0.253829 7.64376C0.900704 7.09653 1.00992 6.49313 1.0977 6.00833L1.10918 5.94516C1.13949 5.77969 1.27238 5.65219 1.43895 5.62876C1.49645 5.62067 1.55731 5.61653 1.61984 5.61653C1.9916 5.61653 2.51535 5.77317 2.84742 6.12305C2.90406 6.18278 2.94043 6.25887 2.95129 6.34047C2.97922 6.5504 2.9936 6.74251 3.00625 6.912C3.0541 7.55071 3.09641 7.61844 3.29098 7.68001C3.41293 7.7186 3.50824 7.81442 3.54617 7.93653C3.72942 8.52645 3.97258 9.09098 4.26688 9.6236C4.41223 9.3461 4.57285 9.09649 4.72235 8.86422C5.08797 8.29618 5.3768 7.84743 5.27813 7.29129C4.95836 5.48879 5.12067 4.13098 5.76067 3.25551C6.11707 2.76797 6.62481 2.43559 7.24184 2.28032C7.11902 1.32204 6.45309 0.887584 6.08445 0.788795C5.87606 0.732974 5.75238 0.518756 5.80824 0.310357C5.8641 0.101998 6.07832 -0.0217912 6.28664 0.0341463C7.04777 0.238092 7.86078 0.986803 8.01606 2.18266C8.63949 2.1809 9.2057 2.37129 9.67164 2.74356C10.523 3.42383 11.0375 4.68797 11.2006 6.50079C11.2497 7.04629 11.6026 7.36458 12.0911 7.80501C12.4898 8.16454 12.9339 8.56594 13.2897 9.17278C13.7329 8.99231 14.2083 8.87524 14.7047 8.83286C14.564 7.91286 13.9169 7.49278 13.5554 7.39594C13.347 7.34012 13.2234 7.1259 13.2792 6.91754C13.3351 6.70915 13.5493 6.5854 13.7576 6.64133C13.9539 6.69391 14.1536 6.78317 14.3446 6.90653C14.4335 6.4679 14.6485 6.05649 14.974 5.73098C15.4102 5.29481 15.9902 5.05462 16.607 5.05462C16.8089 5.05462 17.01 5.08098 17.2048 5.13294C17.3398 5.16899 17.4453 5.2745 17.4814 5.40954C17.6936 6.2043 17.4645 7.05907 16.8834 7.64028C16.479 8.04461 15.9509 8.28016 15.3845 8.31247C15.4339 8.47411 15.4706 8.64614 15.492 8.82856C18.0095 9.0177 20 11.1265 20 13.6915C20 16.3805 17.8123 18.5682 15.1233 18.5682C14.1239 18.5682 13.172 18.2711 12.357 17.7077C12.2287 17.764 12.0999 17.8182 11.9705 17.8693C10.7949 18.333 9.60676 18.5681 8.43922 18.5681C6.56125 18.5681 4.81828 17.9545 3.39875 16.7936C1.91504 15.5802 0.821525 13.7848 0.236525 11.6015C0.0456266 10.8893 -0.122772 9.21145 0.121877 7.8718ZM11.5679 8.38524C11.0424 7.91141 10.4991 7.42145 10.4225 6.57087C10.2792 4.97848 9.8625 3.89614 9.18395 3.35399C8.78113 3.03215 8.28324 2.90805 7.70395 2.98547C7.13184 3.06184 6.6902 3.30782 6.39133 3.71665C5.88195 4.41344 5.76621 5.57024 6.04738 7.15485C6.19961 8.0127 5.78258 8.66055 5.3793 9.28711C5.15328 9.63825 4.92063 10.0003 4.76242 10.4217C6.07895 12.3229 8.07664 13.7093 10.2748 14.217C10.2561 14.0427 10.2465 13.8672 10.2465 13.6915C10.2465 11.9294 11.186 10.3826 12.5903 9.52555C12.298 9.04454 11.928 8.71001 11.5679 8.38524ZM16.331 7.08782C16.6592 6.75961 16.8177 6.29942 16.7698 5.84442C16.7158 5.83872 16.6616 5.83579 16.6071 5.83579C16.1989 5.83579 15.8152 5.99473 15.5266 6.28333C15.1984 6.61153 15.0398 7.07176 15.0877 7.52672C15.1417 7.53243 15.196 7.53532 15.2503 7.53532H15.2504C15.6587 7.53536 16.0424 7.37641 16.331 7.08782ZM15.1233 17.7869C17.3816 17.7869 19.2188 15.9497 19.2188 13.6915C19.2188 11.4332 17.3816 9.59598 15.1233 9.59598C12.865 9.59598 11.0278 11.4332 11.0278 13.6915C11.0278 13.9166 11.0462 14.1414 11.0826 14.3625C11.3339 14.3949 11.5869 14.4155 11.8411 14.4242C11.7875 14.1846 11.7596 13.9398 11.7596 13.6915C11.7596 13.2515 11.8442 12.8221 12.0111 12.4151C12.093 12.2156 12.3211 12.12 12.5208 12.2019C12.7204 12.2838 12.8158 12.512 12.7339 12.7116C12.6058 13.024 12.5408 13.3537 12.5408 13.6915C12.5408 13.9371 12.5756 14.1784 12.6437 14.412C13.2027 14.376 13.7626 14.2836 14.3143 14.1358C14.4266 14.1057 14.5466 14.1273 14.6415 14.1946C14.9887 14.4411 15.3386 14.7511 15.5461 15.3456C15.5996 15.4988 15.5528 15.6691 15.4285 15.7735C14.7109 16.3763 13.9612 16.8872 13.1889 17.302C13.7801 17.6204 14.4383 17.7869 15.1233 17.7869ZM0.991134 11.3993C2.06289 15.399 4.84719 17.7869 8.43918 17.7869C10.5361 17.7869 12.7496 16.9272 14.7006 15.3604C14.5972 15.1748 14.4693 15.047 14.332 14.9379C13.5984 15.1189 12.8525 15.2106 12.1118 15.2106C10.0153 15.2106 7.99387 14.4961 6.26598 13.1445C5.3875 12.4574 4.62613 11.6294 4.01625 10.7113C4.00899 10.7014 4.00215 10.6913 3.99586 10.6808C3.51442 9.95036 3.12879 9.16337 2.85684 8.34501C2.30938 8.06954 2.26762 7.51157 2.22711 6.97032C2.21785 6.84661 2.20836 6.71973 2.19387 6.58587C2.08996 6.51063 1.95227 6.45106 1.81422 6.42044C1.71012 6.91712 1.5077 7.55465 0.868048 8.14336C0.687072 9.29422 0.818478 10.7549 0.991134 11.3993Z" fill="#86BC42"/>
</svg>
