<svg width="16" height="17" viewBox="0 0 16 17" fill="none" xmlns="http://www.w3.org/2000/svg">
<path d="M14.7397 3.47047C13.9536 2.67463 12.8697 2.23633 11.6875 2.23633C9.62075 2.23633 8.55216 3.29951 8.01966 4.19139C8.01303 4.20245 8.00647 4.21354 8 4.2246C7.99353 4.21354 7.98697 4.20245 7.98034 4.19139C7.44784 3.29951 6.37925 2.23633 4.3125 2.23633C3.13034 2.23633 2.04641 2.67463 1.26031 3.4705C0.435813 4.30527 0 5.44796 0 6.77504C0 9.59305 2.50566 11.4614 4.71631 13.1099C5.81784 13.9313 6.85828 14.7071 7.51312 15.5205C7.63175 15.6679 7.81078 15.7536 8 15.7536C8.18922 15.7536 8.36825 15.6679 8.48691 15.5206C8.82372 15.1022 9.29191 14.6573 9.96041 14.1205C10.2295 13.9044 10.2724 13.5111 10.0563 13.242C9.84016 12.973 9.44675 12.9301 9.17762 13.1462C8.706 13.5249 8.32025 13.8674 8.00028 14.1929C7.29378 13.4728 6.39956 12.806 5.46366 12.1082C3.39209 10.5634 1.25 8.96611 1.25 6.77504C1.25 4.83851 2.50934 3.48603 4.3125 3.48603C5.48497 3.48603 6.35072 3.92701 6.88562 4.79671C7.31031 5.48707 7.37637 6.20568 7.37681 6.21012C7.40187 6.53563 7.67331 6.78835 7.99984 6.78835C8.32644 6.78835 8.59784 6.53838 8.62291 6.21287C8.62356 6.20568 8.68962 5.48707 9.11431 4.79671C9.64928 3.92701 10.515 3.48603 11.6875 3.48603C13.4907 3.48603 14.75 4.83851 14.75 6.77504C14.75 8.58829 13.2734 9.99414 11.6777 11.2432C11.4059 11.456 11.3581 11.8487 11.5709 12.1204C11.7836 12.3921 12.1765 12.44 12.4483 12.2272C13.2073 11.633 14.1694 10.83 14.8771 9.8871C15.6327 8.88038 16 7.86241 16 6.77504C16 5.44796 15.5642 4.30527 14.7397 3.47047Z" fill="#B04D50"/>
</svg>
