<svg width="20" height="519" viewBox="0 0 20 519" fill="none" xmlns="http://www.w3.org/2000/svg">
<g clip-path="url(#clip0_102_82)">
<path d="M0.00408745 360.27C0.0296364 359.211 0.136238 358.221 0.320875 357.328C0.423986 356.829 1.20118 356.989 1.09791 357.488C0.922832 358.335 0.821747 359.277 0.797308 360.289C0.758627 361.893 1.00809 363.285 1.53872 364.427C2.38684 366.253 4.04541 367.456 6.00581 367.814C6.01596 367.816 6.94836 367.98 8.24562 367.713C7.71163 367.368 7.05175 366.843 6.45419 366.09C4.59488 363.748 4.57592 360.64 5.36081 357.878C5.85553 356.136 6.55889 354.413 7.64648 352.953C5.95852 352.096 4.75984 352.423 4.70874 352.437C4.69728 352.441 4.69287 352.442 4.68113 352.444C4.62499 352.457 3.29389 352.782 2.19606 354.568C1.92723 355.006 1.25386 354.586 1.51999 354.153C2.75564 352.142 4.31427 351.716 4.49538 351.673C4.6707 351.624 6.17216 351.259 8.15668 352.324C9.13581 351.217 10.4826 350.202 11.9955 350.045C13.1219 349.929 14.2482 350.357 15.1759 350.97C16.031 351.535 16.8072 352.324 17.4827 353.315C18.3147 354.536 18.9967 356.071 19.51 357.878C20.2949 360.64 20.2759 363.748 18.4166 366.09C17.2161 367.603 15.7638 368.194 15.5869 368.262C13.6511 369.135 11.2259 369.015 9.28021 368.261C8.1998 368.607 7.00477 368.791 5.87727 368.597C3.68915 368.344 1.74847 366.742 0.831308 364.788C0.240458 363.529 -0.0378475 362.009 0.00408745 360.27ZM15.2658 367.537C15.2755 367.532 15.2861 367.528 15.2962 367.524C15.3101 367.519 16.7055 366.987 17.8182 365.568C19.4948 363.43 19.4571 360.595 18.7467 358.095C17.6555 354.254 15.9931 352.479 14.7907 351.667C13.791 350.992 12.8616 350.818 12.4818 350.818C12.4711 350.818 12.4608 350.818 12.4509 350.818C12.4406 350.819 12.4302 350.819 12.4199 350.818C12.3782 350.817 8.21353 350.74 6.12411 358.095C5.41365 360.595 5.376 363.43 7.05254 365.568C8.16525 366.987 9.56062 367.519 9.5738 367.524C11.328 368.169 13.5218 368.345 15.2658 367.537Z" fill="#121212"/>
<path d="M8.09812 361.998C8.09812 359.607 10.044 357.661 12.4358 357.661C13.106 357.661 13.7487 357.81 14.3461 358.103C14.8033 358.328 14.4542 359.04 13.9963 358.815C13.5086 358.576 12.9836 358.454 12.4358 358.454C10.4815 358.454 8.89158 360.044 8.89158 361.998C8.89158 363.953 10.4815 365.543 12.4358 365.543C14.3901 365.543 15.98 363.953 15.98 361.998C15.98 361.642 15.9273 361.29 15.8232 360.952C15.6731 360.466 16.4311 360.231 16.5815 360.719C16.7088 361.132 16.7734 361.562 16.7734 361.998C16.7734 364.39 14.8276 366.336 12.4358 366.336C10.044 366.336 8.09812 364.39 8.09812 361.998Z" fill="#121212"/>
<path d="M15.7948 359.629C15.7306 359.785 15.5678 359.885 15.3995 359.873C15.2272 359.86 15.0797 359.732 15.0419 359.564C14.9641 359.218 15.3661 358.949 15.6568 359.153C15.8067 359.258 15.8653 359.459 15.7948 359.629Z" fill="#121212"/>
<path d="M1.52041 355.635C1.71457 355.926 1.4461 356.32 1.10361 356.241C0.938924 356.204 0.812168 356.062 0.795823 355.893C0.779875 355.729 0.871281 355.567 1.02109 355.496C1.19565 355.414 1.4142 355.472 1.52041 355.635Z" fill="#121212"/>
</g>
<g clip-path="url(#clip1_102_82)">
<path d="M1.17758 311.004C1.30105 310.9 1.48586 310.915 1.59051 311.038C1.69515 311.162 1.68 311.347 1.55656 311.451C0.922459 311.989 0.586796 312.591 0.585936 313.192C0.58535 313.595 0.73 313.936 1.02816 314.235C1.52672 314.733 2.45441 315.105 3.78547 315.338C4.98035 315.548 6.4768 315.65 8.36172 315.647C11.2718 315.643 13.3247 315.391 14.6092 314.879C14.1144 314.527 13.5851 314.104 13.0174 313.608C12.8456 313.814 12.5992 313.95 12.323 313.978C11.7495 314.036 11.2333 313.611 11.1779 313.034C11.1409 312.648 11.1401 312.26 11.175 311.877C10.6607 311.364 10.1969 310.88 9.77992 310.42C9.54508 310.822 9.38336 311.246 9.29859 311.684C9.22621 312.057 9.20836 312.444 9.24559 312.833C9.30059 313.41 8.87945 313.926 8.30453 313.984C7.73234 314.042 7.22027 313.62 7.1643 313.04C7.10742 312.45 7.13492 311.859 7.24601 311.285C7.3632 310.68 7.57402 310.096 7.87359 309.542C7.31101 309.56 6.76074 309.606 6.22957 309.678C5.74047 310.298 5.43883 310.973 5.33355 311.686C5.27801 312.062 5.27754 312.449 5.33226 312.836C5.41332 313.41 5.0157 313.944 4.44562 314.028C3.88 314.111 3.34363 313.714 3.26199 313.137C3.1789 312.549 3.17996 311.958 3.26519 311.381C3.31648 311.033 3.39898 310.69 3.5114 310.353C3.22 310.465 2.94223 310.588 2.68074 310.721C2.53875 310.793 2.36109 310.738 2.28679 310.592C2.2134 310.448 2.27082 310.272 2.41504 310.198C4.02508 309.379 6.25082 308.927 8.53851 308.949C8.38086 308.744 8.23402 308.545 8.09789 308.351C7.2398 307.127 6.82265 306.124 6.82265 305.285C6.82265 304.707 7.02344 304.214 7.41937 303.82C8.24781 302.993 9.65035 302.863 11.3685 303.453C13.0165 304.018 14.7822 305.186 16.3403 306.74C18.5977 308.991 20 311.634 20 313.638C20 314.469 19.747 315.161 19.2683 315.638C18.8712 316.034 18.3829 316.232 17.8072 316.232C17.1978 316.232 16.4904 316.01 15.6895 315.567C15.5254 315.476 15.3568 315.375 15.1839 315.266C13.8479 315.912 11.613 316.228 8.36254 316.233C6.50457 316.235 4.88574 316.127 3.68406 315.916C2.21168 315.657 1.20742 315.242 0.613865 314.649C0.20574 314.241 -0.000782013 313.75 3.8147e-05 313.191C0.00113106 312.413 0.408318 311.657 1.17758 311.004ZM4.23242 310.107C4.04398 310.546 3.9132 311.003 3.84476 311.466C3.76773 311.988 3.76683 312.523 3.84211 313.055C3.87812 313.31 4.10976 313.485 4.36078 313.448C4.61262 313.411 4.78812 313.174 4.75207 312.918C4.68949 312.476 4.69012 312.032 4.75391 311.6C4.84644 310.974 5.06992 310.375 5.41922 309.813C5.00777 309.894 4.61094 309.992 4.23242 310.107ZM11.7612 312.978C11.784 313.217 11.9795 313.397 12.2163 313.397C12.3613 313.397 12.4928 313.331 12.5796 313.218C12.307 312.971 12.0257 312.707 11.7357 312.427C11.7353 312.611 11.7436 312.795 11.7612 312.978ZM7.82125 311.396C7.72086 311.916 7.69601 312.449 7.7475 312.984C7.77211 313.239 7.9957 313.426 8.24789 313.401C8.5009 313.375 8.68676 313.146 8.66226 312.889C8.61973 312.444 8.64027 312.001 8.72328 311.573C8.83226 311.009 9.05062 310.469 9.37281 309.962C9.25004 309.821 9.13172 309.683 9.01816 309.546C8.86469 309.54 8.7098 309.536 8.5541 309.535C8.19379 310.12 7.94734 310.745 7.82125 311.396ZM12.5919 304.632C12.1482 304.809 11.7332 305.04 11.3574 305.319C10.934 305.633 10.5555 306.01 10.2323 306.44C10.0878 306.632 10.1107 306.897 10.2856 307.056C10.4864 307.239 10.8076 307.206 10.9723 306.987C11.2409 306.63 11.5548 306.317 11.9054 306.056C12.4138 305.679 12.9948 305.414 13.6386 305.263C13.2904 305.03 12.9405 304.819 12.5919 304.632ZM18.3402 310.279C17.8829 310.437 17.4533 310.65 17.0607 310.915C16.6236 311.211 16.2284 311.571 15.8862 311.985C15.7332 312.171 15.744 312.437 15.9115 312.604C16.1036 312.795 16.4257 312.777 16.5999 312.566C16.8844 312.221 17.2121 311.922 17.5739 311.678C17.936 311.433 18.336 311.243 18.7656 311.108C18.6402 310.835 18.4982 310.558 18.3402 310.279ZM15.9734 315.054C17.2932 315.785 18.2357 315.841 18.8545 315.223C19.2258 314.853 19.4141 314.32 19.4141 313.638C19.4141 313.04 19.2661 312.363 18.9936 311.651C18.598 311.769 18.2314 311.941 17.9019 312.163C17.5866 312.376 17.3006 312.637 17.0519 312.938C16.6591 313.415 15.9326 313.452 15.4978 313.019C15.115 312.637 15.0877 312.032 15.4343 311.612C15.8123 311.154 16.2491 310.757 16.7327 310.43C17.1344 310.159 17.5707 309.937 18.0331 309.767C17.793 309.387 17.5255 309.006 17.2328 308.63C16.6343 308.664 15.8152 308.819 15.0598 309.329C14.7445 309.542 14.4585 309.803 14.2098 310.104C13.8405 310.552 13.1775 310.618 12.7323 310.254C12.2839 309.887 12.2239 309.224 12.5922 308.778C12.8249 308.496 13.0826 308.234 13.3581 308C13.4813 307.895 13.6662 307.91 13.7711 308.033C13.8759 308.157 13.8609 308.342 13.7377 308.446C13.4884 308.658 13.255 308.896 13.0442 309.151C12.8805 309.35 12.9069 309.639 13.1033 309.8C13.3002 309.961 13.5939 309.93 13.7579 309.731C14.0424 309.386 14.37 309.088 14.7319 308.843C15.3253 308.443 16.0273 308.185 16.787 308.084C16.5546 307.812 16.3096 307.545 16.0531 307.283C15.6187 307.386 15.2037 307.536 14.8177 307.73C14.6755 307.802 14.498 307.746 14.4244 307.6C14.3518 307.455 14.41 307.279 14.5546 307.207C14.8759 307.045 15.215 306.912 15.5671 306.807C15.1571 306.422 14.7352 306.065 14.3073 305.741C13.5235 305.833 12.8333 306.097 12.2548 306.527C11.9493 306.754 11.6754 307.027 11.4405 307.339C11.0694 307.832 10.3443 307.902 9.89129 307.489C9.49141 307.125 9.43672 306.523 9.76406 306.088C10.121 305.613 10.5396 305.196 11.0081 304.848C11.2899 304.639 11.5912 304.454 11.9086 304.296C11.663 304.186 11.4192 304.09 11.1782 304.007C10.5285 303.784 9.93703 303.673 9.42133 303.673C8.75 303.673 8.20726 303.861 7.83301 304.234C7.54734 304.519 7.40848 304.863 7.40848 305.285C7.40848 305.99 7.8018 306.908 8.57758 308.015C8.96531 308.568 9.4523 309.214 9.95328 309.735C11.6989 311.552 13.8133 313.858 15.9734 315.054Z" fill="#121212"/>
</g>
<g clip-path="url(#clip2_102_82)">
<path d="M0.0527744 509.029C1.71853 506.048 4.45694 504.224 7.66661 503.886C9.2758 501.854 14.3251 501.339 14.543 501.318C14.685 501.303 14.8279 501.365 14.9149 501.48C15.0024 501.595 15.024 501.747 14.9719 501.882C14.4768 503.167 13.9697 504.629 13.8355 505.227C14.7524 505.646 15.5538 506.092 16.0705 506.464C17.1912 504.671 19.4787 504.649 19.5833 504.649C19.8136 504.649 20 504.835 20 505.066C20 507.48 19.1585 508.692 18.5958 509.232C19.1585 509.773 20 510.985 20 513.399C20 513.629 19.8136 513.816 19.5833 513.816C19.4787 513.816 17.1911 513.793 16.0705 512.001C15.3841 512.495 14.1972 513.119 12.9002 513.638C13.1868 514.102 13.3333 514.839 13.3333 515.899C13.3333 516.129 13.1469 516.316 12.9166 516.316C12.7927 516.316 9.95924 516.291 8.54814 514.636C4.95944 514.567 1.86927 512.687 0.0527744 509.435C-0.0176163 509.309 -0.0176163 509.155 0.0527744 509.029ZM13.9489 502.23C12.5489 502.433 10.2504 502.932 8.9515 503.824C10.1492 503.871 11.6773 504.324 13.0626 504.892C13.247 504.16 13.6563 503.015 13.9489 502.23ZM12.4902 515.458C12.4347 514.299 12.1673 514.003 12.0923 513.943C11.2803 514.228 10.4577 514.454 9.71068 514.568C10.6146 515.204 11.8467 515.402 12.4902 515.458ZM12.1407 513.927L12.1405 513.926C12.1394 513.926 12.1382 513.927 12.1371 513.927C12.1394 513.927 12.1382 513.928 12.1407 513.927ZM8.74993 513.816C11.1848 513.816 15.166 511.817 15.9033 511.062C15.9822 510.981 16.0901 510.937 16.2011 510.937C16.2264 510.937 16.252 510.939 16.2772 510.944C16.4136 510.969 16.5287 511.061 16.5837 511.188C17.146 512.492 18.4684 512.849 19.1557 512.946C19.0255 510.335 17.7897 509.637 17.7262 509.603C17.5891 509.533 17.5045 509.391 17.5024 509.236C17.5004 509.081 17.5879 508.935 17.7258 508.862C17.7816 508.832 19.0247 508.139 19.1557 505.521C18.4689 505.622 17.1415 505.983 16.5837 507.276C16.5287 507.404 16.4136 507.496 16.2772 507.521C16.1397 507.547 16.0001 507.502 15.9033 507.403C15.166 506.648 11.1848 504.649 8.74993 504.649C5.46011 504.649 2.61056 506.316 0.896687 509.232C2.61056 512.149 5.46011 513.816 8.74993 513.816Z" fill="#121212"/>
<path d="M7.50041 509.232C7.50041 507.315 6.74397 506.141 6.73623 506.129C6.6101 505.937 6.66299 505.679 6.85424 505.552C7.04549 505.426 7.30346 505.477 7.43041 505.668C7.46745 505.723 8.33374 507.048 8.33374 509.232C8.33374 511.417 7.46745 512.741 7.43041 512.797C7.35026 512.917 7.21799 512.982 7.08334 512.982C7.00401 512.982 6.92385 512.96 6.85264 512.912C6.661 512.785 6.60932 512.526 6.73709 512.335C6.74479 512.323 7.50041 511.167 7.50041 509.232Z" fill="#121212"/>
<path d="M8.52025 505.552C8.7119 505.426 8.96909 505.477 9.09643 505.668C9.13346 505.723 9.99976 507.048 9.99976 509.232C9.99976 510.399 9.74831 511.316 9.5371 511.879C9.47444 512.046 9.31573 512.15 9.14686 512.15C9.09842 512.15 9.04881 512.141 9.00077 512.123C8.7851 512.043 8.67604 511.803 8.75662 511.587C8.94338 511.088 9.16639 510.274 9.16639 509.232C9.16639 507.315 8.40994 506.141 8.40221 506.129C8.27611 505.937 8.329 505.679 8.52025 505.552Z" fill="#121212"/>
<path d="M4.99993 508.816C4.53969 508.816 4.1666 508.443 4.1666 507.982C4.1666 507.522 4.53969 507.149 4.99993 507.149C5.46016 507.149 5.83325 507.522 5.83325 507.982C5.83325 508.443 5.46016 508.816 4.99993 508.816Z" fill="#121212"/>
</g>
<path d="M1.70051 453.937C2.6125 453.21 3.89973 452.615 5.52645 452.168C8.655 451.309 12.183 451.216 13.5546 451.216C17.1086 451.216 20 454.108 20 457.662V460.392C20 463.946 17.1086 466.838 13.5546 466.838C11.9159 466.838 10.6851 466.324 9.38211 465.781C8.03461 465.219 6.64129 464.638 4.68168 464.638C2.1002 464.638 0 462.537 0 459.956V457.225C0 455.942 0.572147 454.836 1.70051 453.937ZM2.02945 460.615C1.88156 460.772 1.63434 460.779 1.47726 460.631C1.21234 460.382 0.979298 460.104 0.78125 459.805V459.956C0.78125 462.107 2.53098 463.856 4.68168 463.856C6.7977 463.856 8.26441 464.468 9.68285 465.06C10.9116 465.572 12.0723 466.057 13.5546 466.057C16.5554 466.057 19.0183 463.711 19.2067 460.757C18.1098 462.752 15.9876 464.107 13.5546 464.107C11.9159 464.107 10.6851 463.593 9.38211 463.05C8.03461 462.488 6.64129 461.907 4.68168 461.907C4.53609 461.907 4.38902 461.9 4.24449 461.886C4.02969 461.866 3.87188 461.676 3.89199 461.461C3.91211 461.246 4.10277 461.088 4.31734 461.109C4.43777 461.12 4.56031 461.126 4.68168 461.126C6.7977 461.126 8.26441 461.737 9.68285 462.329C10.9116 462.842 12.0723 463.326 13.5546 463.326C16.6779 463.326 19.2188 460.785 19.2188 457.662C19.2188 454.538 16.6779 451.997 13.5546 451.997C12.2147 451.997 8.77024 452.087 5.73332 452.921C2.44738 453.824 0.78125 455.272 0.78125 457.225C0.78125 458.291 1.23016 459.325 2.01281 460.062C2.16988 460.21 2.17734 460.457 2.02945 460.615Z" fill="#121212"/>
<path d="M2.35089 460.864C2.44277 460.669 2.67554 460.585 2.87066 460.677C2.87347 460.678 2.87718 460.68 2.87996 460.681C3.07288 460.778 3.15109 461.012 3.05464 461.205C2.9862 461.342 2.84824 461.421 2.70492 461.421C2.64703 461.421 2.58828 461.408 2.53288 461.381C2.34136 461.288 2.25984 461.057 2.35089 460.864Z" fill="#121212"/>
<path d="M10.7349 452.889L10.755 452.887C10.9704 452.87 11.1584 453.03 11.1755 453.245C11.1927 453.46 11.0322 453.649 10.8172 453.666L10.7972 453.667C10.7866 453.668 10.7761 453.669 10.7657 453.669C10.5641 453.669 10.3931 453.514 10.3767 453.309C10.3595 453.094 10.5199 452.906 10.7349 452.889Z" fill="#121212"/>
<path d="M1.80681 456.173C2.19428 455.407 3.05639 454.745 4.36928 454.206C5.43158 453.769 6.59334 453.494 7.38088 453.339C7.85287 453.247 8.34748 453.164 8.851 453.094C9.06455 453.063 9.26205 453.213 9.29197 453.426C9.32186 453.64 9.17287 453.837 8.9592 453.867C8.46975 453.936 7.98932 454.016 7.53123 454.106C4.84803 454.632 3.01564 455.514 2.50392 456.525C2.39643 456.738 2.34416 456.967 2.34416 457.225C2.34416 458.514 3.39295 459.563 4.68209 459.563C5.98553 459.563 7.25127 459.776 8.55166 460.214C9.11174 460.403 9.65557 460.629 10.1815 460.847C10.5293 460.991 10.889 461.141 11.246 461.276C12.147 461.617 12.8376 461.763 13.5551 461.763C15.8167 461.763 17.6567 459.923 17.6567 457.661C17.6567 455.4 15.8167 453.56 13.5551 453.56C13.1138 453.56 12.6659 453.568 12.2238 453.585C12.1488 453.587 12.0737 453.59 11.9985 453.594C11.7831 453.604 11.6005 453.436 11.591 453.221C11.5815 453.005 11.7485 452.823 11.964 452.813C12.041 452.81 12.1179 452.807 12.1947 452.804C12.6465 452.787 13.1042 452.779 13.5551 452.779C16.2475 452.779 18.438 454.969 18.438 457.661C18.438 460.354 16.2476 462.544 13.5551 462.544C12.7373 462.544 11.964 462.383 10.9692 462.006C10.6008 461.867 10.2354 461.715 9.88201 461.568C9.36822 461.355 8.83693 461.135 8.30217 460.955C7.0835 460.544 5.89935 460.344 4.68209 460.344C2.96217 460.344 1.56291 458.945 1.56291 457.225C1.56291 456.841 1.64271 456.497 1.80681 456.173Z" fill="#121212"/>
<path d="M13.1804 454.332C14.2724 454.332 15.1609 455.138 15.1609 456.128C15.1609 457.119 14.2724 457.924 13.1804 457.924C12.0883 457.924 11.1999 457.119 11.1999 456.128C11.1999 455.138 12.0883 454.332 13.1804 454.332ZM13.1804 457.143C13.8417 457.143 14.3796 456.688 14.3796 456.128C14.3796 455.569 13.8417 455.114 13.1804 455.114C12.5191 455.114 11.9811 455.569 11.9811 456.128C11.9811 456.688 12.5191 457.143 13.1804 457.143Z" fill="#121212"/>
<g clip-path="url(#clip3_102_82)">
<path d="M2.95957 405.048L5.51511 401.836V400.41C5.51511 399.764 6.04081 399.238 6.68698 399.238H13.3121C13.9583 399.238 14.484 399.764 14.484 400.41V401.836L17.0396 405.048C17.7206 405.904 18.2026 406.625 18.2026 408.112V417.703C18.2026 418.549 17.5438 419.238 16.7339 419.238H3.26527C2.45543 419.238 1.79653 418.549 1.79653 417.703V408.112C1.79653 406.625 2.2786 405.904 2.95957 405.048ZM2.57778 408.503V416.113H9.98415V408.503H2.57778ZM2.59188 407.721H9.99622C10.0744 406.491 10.5287 405.825 11.1472 405.048L13.2834 402.363H6.09413L3.57094 405.534C3.02195 406.224 2.6648 406.745 2.59188 407.721ZM13.7028 400.41C13.7028 400.195 13.5275 400.019 13.3121 400.019H6.68702C6.47163 400.019 6.29639 400.195 6.29639 400.41V401.582H13.7028V400.41ZM16.4282 405.534L14.0934 402.6L11.7586 405.534C11.2096 406.224 10.8525 406.745 10.7795 407.721H12.2506C12.4663 407.721 12.6413 407.896 12.6413 408.112C12.6413 408.328 12.4663 408.503 12.2506 408.503H10.7654V416.113H17.4214V408.503H15.7662C15.5505 408.503 15.3756 408.328 15.3756 408.112C15.3756 407.896 15.5505 407.721 15.7662 407.721H17.4073C17.3344 406.745 16.9772 406.224 16.4282 405.534ZM17.4214 417.703V416.894H10.7654V418.457H16.7339C17.113 418.457 17.4214 418.119 17.4214 417.703ZM3.26527 418.457H9.98415V416.894H2.57778V417.703C2.57778 418.119 2.88621 418.457 3.26527 418.457Z" fill="#121212"/>
<path d="M6.2815 414.292C5.18732 414.292 4.29712 413.402 4.29712 412.308C4.29712 411.214 5.18732 410.324 6.2815 410.324C7.37567 410.324 8.26587 411.214 8.26587 412.308C8.26587 413.402 7.37564 414.292 6.2815 414.292ZM6.2815 411.105C5.6181 411.105 5.07837 411.644 5.07837 412.308C5.07837 412.971 5.61806 413.511 6.2815 413.511C6.94493 413.511 7.48462 412.971 7.48462 412.308C7.48462 411.644 6.94489 411.105 6.2815 411.105Z" fill="#121212"/>
<path d="M14.0081 408.503C13.7924 408.503 13.6175 408.328 13.6175 408.112C13.6175 407.896 13.7924 407.722 14.0081 407.722H14.0085C14.2242 407.722 14.3989 407.896 14.3989 408.112C14.3989 408.328 14.2239 408.503 14.0081 408.503Z" fill="#121212"/>
</g>
<g clip-path="url(#clip4_102_82)">
<path d="M0 264.046C0 263.458 0.229376 262.905 0.645899 262.488L3.79984 259.334C3.80344 259.331 3.80672 259.326 3.81051 259.323C3.8143 259.319 3.81836 259.316 3.82227 259.312L4.87574 258.259C5.02832 258.106 5.27559 258.106 5.4282 258.259C5.58074 258.411 5.58074 258.658 5.4282 258.811L4.63977 259.599L5.94418 260.904C6.01172 260.971 6.05215 261.061 6.05789 261.157C6.09926 261.844 6.39293 262.494 6.88371 262.987C7.37766 263.479 8.02816 263.773 8.71543 263.814C8.81074 263.82 8.90066 263.86 8.9682 263.928L10.2726 265.232L14.0579 261.447L12.7541 260.143C12.6865 260.076 12.6461 259.986 12.6404 259.89C12.5989 259.202 12.3051 258.551 11.8129 258.059C11.3206 257.567 10.6703 257.273 9.98172 257.232C9.88641 257.226 9.79645 257.186 9.72895 257.118L8.42508 255.814L7.93062 256.309C7.85434 256.385 7.75438 256.423 7.65441 256.423C7.55445 256.423 7.45449 256.385 7.3782 256.309C7.22566 256.156 7.22566 255.909 7.3782 255.756L8.14863 254.986C8.14871 254.986 8.14875 254.986 8.14883 254.985C8.14891 254.985 8.14898 254.985 8.14906 254.985L9.09336 254.041C10.5429 252.591 11.9187 252.676 12.9234 252.737C13.5196 252.774 13.8666 252.784 14.0695 252.582L14.5695 252.082L14.539 252.051C14.4657 251.978 14.4246 251.878 14.4246 251.775C14.4246 251.671 14.4658 251.572 14.5391 251.499L15.7525 250.286C16.0196 250.019 16.3761 249.872 16.7562 249.872C17.1363 249.872 17.4928 250.019 17.7599 250.286L19.5858 252.112C19.8529 252.379 20 252.736 20 253.116C20 253.496 19.8529 253.852 19.5859 254.119L18.3734 255.333C18.3002 255.406 18.2008 255.447 18.0972 255.447H18.0971C17.9935 255.447 17.8941 255.406 17.8209 255.333L17.7904 255.303L17.2904 255.802C17.0876 256.005 17.0983 256.352 17.1348 256.949C17.1963 257.953 17.2805 259.329 15.831 260.779L14.8867 261.723C14.8866 261.723 14.8866 261.723 14.8865 261.723C14.8865 261.723 14.8864 261.723 14.8863 261.723L10.5594 266.05C10.5559 266.054 10.5529 266.058 10.5493 266.061C10.5457 266.065 10.5418 266.068 10.5381 266.072L7.38359 269.226C6.96707 269.643 6.41398 269.872 5.82625 269.872C4.73477 269.872 3.82668 269.073 3.6541 268.029C2.72828 267.876 1.99586 267.144 1.84266 266.218C0.798788 266.045 0 265.137 0 264.046ZM19.0334 253.567C19.1529 253.447 19.2188 253.287 19.2188 253.116C19.2188 252.944 19.1529 252.784 19.0334 252.664L17.2075 250.839C17.0879 250.719 16.9277 250.653 16.7562 250.653C16.5847 250.653 16.4245 250.719 16.3048 250.839L15.3677 251.775L18.097 254.504L19.0334 253.567ZM16.355 256.996C16.3146 256.336 16.2764 255.712 16.738 255.25L17.2379 254.75L15.1218 252.634L14.6218 253.134C14.1602 253.596 13.5362 253.557 12.8756 253.517C11.9244 253.459 10.8463 253.393 9.6457 254.593L8.97742 255.262L10.1799 256.464C11.0028 256.549 11.7739 256.916 12.3652 257.507C12.9565 258.098 13.3232 258.869 13.4077 259.692L14.6102 260.894L15.2785 260.226C16.4792 259.026 16.4132 257.947 16.355 256.996ZM1.8552 265.423C1.93922 265.001 2.14566 264.613 2.45691 264.3C2.60922 264.148 2.85649 264.147 3.00937 264.299C3.16215 264.452 3.16258 264.699 3.01027 264.852C2.74176 265.121 2.59387 265.478 2.59387 265.857C2.59387 266.641 3.23125 267.278 4.01473 267.278C4.39363 267.278 4.75066 267.13 5.02008 266.862C5.17293 266.709 5.4202 266.71 5.57254 266.863C5.7248 267.015 5.72441 267.263 5.57164 267.415C5.25934 267.726 4.8707 267.933 4.44859 268.017C4.6041 268.633 5.16273 269.091 5.82625 269.091C6.20531 269.091 6.56219 268.943 6.83117 268.674L9.72008 265.785L8.51707 264.582C7.69586 264.497 6.92496 264.131 6.33121 263.54C5.74098 262.947 5.37481 262.176 5.29035 261.355L4.08731 260.152L1.19836 263.041C0.929375 263.31 0.78125 263.667 0.78125 264.046C0.78125 264.709 1.23883 265.268 1.8552 265.423Z" fill="#121212"/>
<path d="M8.526 258.187C8.67857 258.034 8.92584 258.034 9.07846 258.187L11.6407 260.749C11.7933 260.901 11.7933 261.149 11.6407 261.301C11.5644 261.378 11.4645 261.416 11.3645 261.416C11.2646 261.416 11.1646 261.378 11.0883 261.301L8.52603 258.739C8.37346 258.586 8.37346 258.339 8.526 258.187Z" fill="#121212"/>
<path d="M7.75033 259.515L10.3126 262.078C10.4651 262.23 10.4651 262.477 10.3126 262.63C10.2363 262.706 10.1363 262.744 10.0364 262.744C9.93639 262.744 9.83647 262.706 9.76018 262.63L7.19791 260.068C7.04537 259.915 7.04537 259.668 7.19791 259.515C7.35049 259.363 7.59776 259.363 7.75033 259.515Z" fill="#121212"/>
<path d="M6.70661 257.569C6.6306 257.645 6.53138 257.682 6.43204 257.682C6.33196 257.682 6.23185 257.644 6.15528 257.567C6.00275 257.415 6.00384 257.166 6.15638 257.014C6.30896 256.861 6.55622 256.861 6.70884 257.014C6.86138 257.166 6.86138 257.414 6.70884 257.566L6.70661 257.569Z" fill="#121212"/>
</g>
<g clip-path="url(#clip5_102_82)">
<path d="M18.1999 54.6498L17.8745 55.5648C17.8606 55.604 17.833 55.635 17.7982 55.6507L16.9853 56.0169C16.8704 56.0687 16.8704 56.2517 16.9853 56.3034L17.7982 56.6696C17.833 56.6853 17.8606 56.7164 17.8745 56.7555L18.1999 57.6705C18.2459 57.7998 18.4084 57.7998 18.4544 57.6705L18.7798 56.7555C18.7937 56.7164 18.8213 56.6853 18.8561 56.6696L19.669 56.3034C19.7838 56.2516 19.7838 56.0687 19.669 56.0169L18.8561 55.6507C18.8213 55.635 18.7937 55.604 18.7798 55.5648L18.4544 54.6498C18.4084 54.5206 18.2459 54.5206 18.1999 54.6498Z" fill="#121212"/>
<path d="M14.1598 50.8187L13.9184 51.4973C13.9081 51.5264 13.8877 51.5494 13.8618 51.561L13.2588 51.8327C13.1736 51.8711 13.1736 52.0068 13.2588 52.0452L13.8618 52.3169C13.8877 52.3285 13.9081 52.3515 13.9184 52.3806L14.1598 53.0593C14.1939 53.1552 14.3145 53.1552 14.3486 53.0593L14.59 52.3806C14.6003 52.3515 14.6208 52.3285 14.6466 52.3169L15.2496 52.0452C15.3348 52.0068 15.3348 51.8711 15.2496 51.8327L14.6466 51.561C14.6208 51.5494 14.6003 51.5264 14.59 51.4973L14.3486 50.8187C14.3145 50.7228 14.1939 50.7228 14.1598 50.8187Z" fill="#121212"/>
<path d="M0.254512 54.0716C0.163474 53.6898 0.399191 53.3065 0.781 53.2155C1.16281 53.1244 1.54613 53.3602 1.63716 53.742C1.7282 54.1238 1.49248 54.5071 1.11068 54.5981C0.728868 54.6892 0.34555 54.4534 0.254512 54.0716Z" fill="#121212"/>
<path d="M17.5981 53.007C17.4288 53.007 17.2916 52.8698 17.2916 52.7005C17.2916 52.5313 17.4288 52.394 17.5981 52.394C17.7673 52.394 17.9045 52.5313 17.9045 52.7005C17.9045 52.8698 17.7673 53.007 17.5981 53.007Z" fill="#121212"/>
<path d="M2.47392 56.7595C2.83825 55.6174 3.48356 54.6272 4.34431 53.8644L3.93642 53.1579C3.71903 52.7815 3.6613 52.3429 3.77384 51.923C3.88634 51.5031 4.15563 51.1521 4.53212 50.9348C5.30931 50.4861 6.30657 50.7533 6.75528 51.5305L7.25427 52.3947C8.41825 52.1463 9.63876 52.2286 10.8055 52.6481C12.4814 53.2508 13.8458 54.4771 14.6474 56.1014C14.6506 56.1079 14.6578 56.1229 14.6688 56.1458C14.9852 56.8058 15.6297 58.0993 16.3901 59.3463C17.049 60.4268 17.5529 61.0733 17.926 61.4595C18.5413 61.2928 19.2104 61.5785 19.5029 62.1714L19.5184 62.2027C19.6793 62.5289 19.7036 62.8982 19.5868 63.2426C19.47 63.5871 19.226 63.8654 18.8999 64.0264L12.7343 67.069C12.905 67.4083 13.0014 67.7911 13.0014 68.1961C13.0014 69.5861 11.8706 70.717 10.4806 70.717C9.48603 70.717 8.62466 70.1378 8.21478 69.2992L6.58044 70.1057C6.38724 70.2011 6.18216 70.2462 5.98001 70.2462C5.47767 70.2462 4.99368 69.9674 4.75681 69.4873L4.74122 69.4558C4.46919 68.9045 4.6061 68.2563 5.03411 67.857C4.95587 67.287 4.73825 66.4083 4.23208 65.0602C3.61122 63.4068 2.88474 61.924 2.87751 61.9094C2.07603 60.2852 1.93266 58.4563 2.47392 56.7595ZM6.06915 51.9265C5.95759 51.7333 5.77751 51.5951 5.562 51.5374C5.49005 51.5181 5.417 51.5086 5.34446 51.5086C5.19974 51.5086 5.05688 51.5465 4.92821 51.6208C4.73501 51.7324 4.59681 51.9125 4.53907 52.128C4.48134 52.3435 4.51099 52.5686 4.62251 52.7618L4.97521 53.3727C5.2229 53.2035 5.48372 53.0504 5.7572 52.9155C5.98954 52.8009 6.22673 52.7015 6.46755 52.6166L6.06915 51.9265ZM10.4806 69.9248C11.4337 69.9248 12.2092 69.1493 12.2092 68.1961C12.2092 67.9169 12.1424 67.6531 12.0242 67.4194L8.92563 68.9485C9.20571 69.5257 9.79704 69.9248 10.4806 69.9248ZM5.45169 69.1051L5.46727 69.1367C5.60618 69.4182 5.94829 69.5343 6.22989 69.3953L18.5493 63.316C18.6857 63.2486 18.7877 63.1323 18.8365 62.9882C18.8854 62.8442 18.8752 62.6897 18.8078 62.5532L18.7924 62.5219C18.6534 62.2403 18.3113 62.1242 18.0297 62.2632L5.71036 68.3425C5.42884 68.4815 5.31278 68.8236 5.45169 69.1051ZM3.58798 61.5588C3.59532 61.5737 4.33895 63.0912 4.9736 64.7813C5.40704 65.9356 5.64903 66.7899 5.76841 67.4305L17.1669 61.8056C16.7651 61.3519 16.2867 60.6985 15.7137 59.7588C14.9352 58.4822 14.2773 57.1618 13.9543 56.4883C13.9454 56.4697 13.9395 56.4574 13.9368 56.452C13.2266 55.0126 12.0193 53.9265 10.5374 53.3936C9.06064 52.8626 7.48751 52.9451 6.10782 53.626C4.72814 54.3068 3.70567 55.5051 3.22872 57.0002C2.75013 58.5006 2.87774 60.1195 3.58798 61.5588Z" fill="#121212"/>
<path d="M12.0589 56.5021C12.1465 56.5021 12.2345 56.4732 12.3078 56.4139C12.4779 56.2763 12.5043 56.0269 12.3667 55.8568C11.9956 55.3981 11.5573 55.0021 11.064 54.68C10.8808 54.5603 10.6353 54.6119 10.5157 54.7951C10.3961 54.9783 10.4476 55.2237 10.6308 55.3433C11.0549 55.6203 11.4317 55.9607 11.7508 56.355C11.829 56.4518 11.9434 56.5021 12.0589 56.5021Z" fill="#121212"/>
<path d="M9.6412 54.8281C9.80781 54.8281 9.96281 54.7222 10.0175 54.5553C10.0857 54.3474 9.97238 54.1236 9.76449 54.0555C9.61398 54.0061 9.45921 53.9629 9.30449 53.9268C9.09144 53.8771 8.87843 54.0096 8.82882 54.2227C8.77917 54.4357 8.91163 54.6487 9.12468 54.6984C9.25687 54.7292 9.38913 54.7661 9.51769 54.8083C9.55871 54.8217 9.60031 54.8281 9.6412 54.8281Z" fill="#121212"/>
</g>
<g clip-path="url(#clip6_102_82)">
<path d="M1.81678 111.848C1.98006 111.454 2.34654 111.209 2.77318 111.209H3.51525V100.896C3.51525 100.681 3.69014 100.506 3.90588 100.506H8.24181C8.45756 100.506 8.63244 100.681 8.63244 100.896C8.63244 101.112 8.45756 101.287 8.24181 101.287H4.2965V111.599C4.2965 111.815 4.12162 111.99 3.90588 111.99H2.77318C2.62002 111.99 2.55807 112.1 2.53853 112.147C2.519 112.194 2.48529 112.315 2.59357 112.424L9.82006 119.65C9.91904 119.749 10.0802 119.749 10.1792 119.65L17.4056 112.424C17.5139 112.315 17.4802 112.194 17.4607 112.147C17.4411 112.1 17.3792 111.99 17.226 111.99H16.0934C15.8776 111.99 15.7028 111.815 15.7028 111.599V101.287H11.7574C11.5417 101.287 11.3668 101.112 11.3668 100.896C11.3668 100.681 11.5417 100.506 11.7574 100.506H16.0934C16.3091 100.506 16.484 100.681 16.484 100.896V111.209H17.2261C17.6528 111.209 18.0192 111.454 18.1825 111.848C18.3458 112.242 18.2598 112.674 17.9581 112.976L10.7317 120.203C10.5361 120.398 10.2762 120.506 9.99963 120.506C9.7231 120.506 9.46314 120.398 9.2676 120.203L2.04115 112.976C1.73951 112.674 1.6535 112.242 1.81678 111.848Z" fill="#121212"/>
<path d="M11.245 107.943C11.19 107.969 11.1319 107.982 11.0747 107.982C10.9298 107.982 10.7906 107.901 10.723 107.762L8.57362 103.336C8.47936 103.142 8.5603 102.908 8.75436 102.814C8.94854 102.72 9.18217 102.801 9.27639 102.995L11.4258 107.421C11.52 107.615 11.4391 107.848 11.245 107.943Z" fill="#121212"/>
<path d="M7.99145 105.641C8.68071 105.641 9.24146 106.202 9.24146 106.891C9.24146 107.581 8.68071 108.141 7.99145 108.141C7.30219 108.141 6.74145 107.581 6.74145 106.891C6.74145 106.202 7.30219 105.641 7.99145 105.641ZM7.99145 107.36C8.24993 107.36 8.4602 107.15 8.4602 106.891C8.4602 106.633 8.24993 106.423 7.99145 106.423C7.73297 106.423 7.5227 106.633 7.5227 106.891C7.5227 107.15 7.73297 107.36 7.99145 107.36Z" fill="#121212"/>
<path d="M13.2581 103.865C13.2581 104.555 12.6973 105.115 12.0081 105.115C11.3188 105.115 10.7581 104.555 10.7581 103.865C10.7581 103.176 11.3188 102.615 12.0081 102.615C12.6973 102.615 13.2581 103.176 13.2581 103.865ZM11.5393 103.865C11.5393 104.124 11.7496 104.334 12.0081 104.334C12.2665 104.334 12.4768 104.124 12.4768 103.865C12.4768 103.607 12.2665 103.397 12.0081 103.397C11.7496 103.397 11.5393 103.607 11.5393 103.865Z" fill="#121212"/>
<path d="M8.43728 110.913C8.22153 110.913 8.04665 110.738 8.04665 110.522C8.04665 110.306 8.22153 110.131 8.43728 110.131H9.69458C9.91032 110.131 10.0852 110.306 10.0852 110.522V113.624C10.0852 113.84 9.91032 114.015 9.69458 114.015C9.47884 114.015 9.30396 113.84 9.30396 113.624V112.434H8.53716C8.32142 112.434 8.14653 112.259 8.14653 112.044C8.14653 111.828 8.32142 111.653 8.53716 111.653H9.30396V110.913H8.43728Z" fill="#121212"/>
<path d="M12.8196 110.12C13.8965 110.12 14.7727 110.996 14.7727 112.073C14.7727 113.15 13.8965 114.026 12.8196 114.026C11.7426 114.026 10.8665 113.15 10.8665 112.073C10.8665 110.996 11.7426 110.12 12.8196 110.12ZM12.8196 113.245C13.4658 113.245 13.9915 112.719 13.9915 112.073C13.9915 111.427 13.4658 110.901 12.8196 110.901C12.1734 110.901 11.6477 111.427 11.6477 112.073C11.6477 112.719 12.1734 113.245 12.8196 113.245Z" fill="#121212"/>
<path d="M5.61769 110.913C5.40195 110.913 5.22707 110.738 5.22707 110.522C5.22707 110.306 5.40195 110.131 5.61769 110.131H6.875C7.09074 110.131 7.26562 110.306 7.26562 110.522V113.624C7.26562 113.84 7.09074 114.015 6.875 114.015C6.65926 114.015 6.48437 113.84 6.48437 113.624V112.434H5.71758C5.50183 112.434 5.32695 112.259 5.32695 112.044C5.32695 111.828 5.50183 111.653 5.71758 111.653H6.48437V110.913H5.61769Z" fill="#121212"/>
<path d="M10 101.287C9.89727 101.287 9.79648 101.245 9.72383 101.172C9.65117 101.1 9.60938 100.999 9.60938 100.896C9.60938 100.794 9.65117 100.693 9.72383 100.62C9.79648 100.548 9.89727 100.506 10 100.506C10.1027 100.506 10.2035 100.547 10.2762 100.62C10.3488 100.693 10.3906 100.794 10.3906 100.896C10.3906 100.999 10.3488 101.1 10.2762 101.172C10.2035 101.245 10.1027 101.287 10 101.287Z" fill="#121212"/>
</g>
<g clip-path="url(#clip7_102_82)">
<path d="M10 20.9282C12.2597 20.9282 14.3842 20.0482 15.9821 18.4503C17.58 16.8525 18.46 14.728 18.46 12.4682C18.46 10.9101 18.0389 9.39097 17.2423 8.075C17.1515 7.92504 16.9721 7.85387 16.8031 7.90105C16.6343 7.94816 16.5175 8.10203 16.5175 8.2773C16.5175 9.13039 15.8204 10.122 14.9216 10.122C14.0386 10.122 13.3202 9.40359 13.3202 8.52055C13.3202 8.21781 13.4026 7.92512 13.5585 7.67418C13.8454 7.22066 13.9979 6.69027 13.9979 6.14301C13.9979 4.60832 12.7985 3.34957 11.267 3.27629C10.6542 3.23933 10.1745 2.72933 10.1745 2.11433C10.1745 1.89992 10.2298 1.69418 10.3343 1.51933C10.4121 1.38933 10.4077 1.22613 10.323 1.1005C10.2384 0.974841 10.0887 0.909567 9.93906 0.932849C9.2552 1.03922 8.6277 1.38738 8.17223 1.91324C7.71129 2.44535 7.45742 3.12582 7.45742 3.82929C7.45742 4.42871 7.63856 5.00699 7.98117 5.50168C7.98266 5.50379 7.9841 5.50586 7.98559 5.50793C8.20289 5.80875 8.3177 6.16258 8.3177 6.53109C8.3177 7.49137 7.53649 8.27258 6.57621 8.27258C5.63465 8.27258 4.86977 7.53793 4.835 6.60015C4.8293 6.44672 4.73426 6.3109 4.59207 6.25289C4.44992 6.195 4.28699 6.22566 4.17563 6.3314C3.35207 7.11355 2.70395 8.03566 2.24938 9.07207C1.77872 10.1451 1.54008 11.2878 1.54008 12.4683C1.54008 14.1112 2.01156 15.7043 2.90356 17.0756C3.02125 17.2564 3.26317 17.3076 3.44403 17.19C3.62485 17.0724 3.67606 16.8304 3.55848 16.6496C2.7491 15.4054 2.32133 13.9596 2.32133 12.4683C2.32133 10.5847 2.9875 8.81785 4.21137 7.42058C4.5691 8.38019 5.49172 9.05383 6.57621 9.05383C7.96723 9.05383 9.09895 7.92211 9.09895 6.53109C9.09895 5.99871 8.93383 5.48801 8.62141 5.05394C8.37098 4.69125 8.23863 4.26785 8.23863 3.82929C8.23863 3.01613 8.70832 2.28476 9.4025 1.9214C9.39633 1.98519 9.39324 2.04957 9.39324 2.11433C9.39324 3.14328 10.1972 3.99629 11.2235 4.05633C11.225 4.05644 11.2264 4.05652 11.2279 4.0566C12.3431 4.10898 13.2166 5.02547 13.2166 6.14301C13.2166 6.54219 13.106 6.9282 12.8966 7.25922C12.6621 7.63676 12.539 8.07199 12.539 8.52055C12.539 9.83441 13.6079 10.9033 14.9217 10.9033C15.557 10.9033 16.1618 10.6041 16.6248 10.061C16.7962 9.85988 16.9383 9.63515 17.0472 9.3975C17.4624 10.3582 17.6788 11.403 17.6788 12.4683C17.6787 16.7023 14.2341 20.147 10 20.147C8.56367 20.147 7.16324 19.748 5.95008 18.9934C5.76692 18.8794 5.52598 18.9356 5.41207 19.1187C5.29813 19.3019 5.35426 19.5428 5.53742 19.6568C6.87453 20.4886 8.4177 20.9282 10 20.9282Z" fill="#121212"/>
<path d="M11.0812 17.2531C11.1385 17.2531 11.1966 17.2405 11.2516 17.2138C11.4457 17.1196 11.5266 16.8858 11.4323 16.6918L9.28296 12.2658C9.18874 12.0717 8.95492 11.9908 8.76097 12.085C8.56691 12.1793 8.48597 12.413 8.58023 12.607L10.7296 17.033C10.7971 17.1722 10.9364 17.2531 11.0812 17.2531Z" fill="#121212"/>
<path d="M11.9061 13.9999C12.5954 13.9999 13.1562 13.4391 13.1562 12.7497C13.1562 12.0603 12.5954 11.4995 11.9061 11.4995C11.2167 11.4995 10.6558 12.0603 10.6558 12.7497C10.6558 13.4391 11.2166 13.9999 11.9061 13.9999ZM11.9061 12.2807C12.1646 12.2807 12.375 12.4911 12.375 12.7497C12.375 13.0083 12.1646 13.2187 11.9061 13.2187C11.6475 13.2187 11.4371 13.0083 11.4371 12.7497C11.4371 12.4911 11.6475 12.2807 11.9061 12.2807Z" fill="#121212"/>
<path d="M8.094 17.8121C8.78338 17.8121 9.34424 17.2513 9.34424 16.5619C9.34424 15.8725 8.78342 15.3116 8.094 15.3116C7.40466 15.3116 6.8438 15.8725 6.8438 16.5619C6.8438 17.2513 7.40466 17.8121 8.094 17.8121ZM8.094 16.0929C8.3526 16.0929 8.56299 16.3033 8.56299 16.5619C8.56299 16.8205 8.3526 17.0309 8.094 17.0309C7.83545 17.0309 7.62506 16.8205 7.62506 16.5619C7.62506 16.3033 7.83545 16.0929 8.094 16.0929Z" fill="#121212"/>
<path d="M4.36084 18.6309C4.46397 18.6309 4.56475 18.5892 4.63736 18.5165C4.71002 18.4438 4.75146 18.343 4.75146 18.2403C4.75146 18.1372 4.71002 18.0368 4.63736 17.9642C4.56475 17.8915 4.46397 17.8497 4.36084 17.8497C4.25807 17.8497 4.15772 17.8915 4.08502 17.9642C4.01197 18.0368 3.97022 18.1376 3.97022 18.2403C3.97022 18.343 4.01197 18.4438 4.08502 18.5165C4.15768 18.5892 4.25807 18.6309 4.36084 18.6309Z" fill="#121212"/>
</g>
<g clip-path="url(#clip8_102_82)">
<path d="M0.3125 211.317C0.3125 209.957 0.972187 208.657 2.07719 207.842C2.3025 207.675 2.58187 207.583 2.86344 207.583C3.21594 207.583 3.54625 207.724 3.78875 207.964C3.83406 207.926 3.87531 207.884 3.92219 207.849C4.09562 207.716 4.30375 207.637 4.5175 207.605L4.37969 206.089C4.37656 206.053 4.375 206.017 4.375 205.98C4.375 205.313 4.9175 204.771 5.58437 204.771H5.66563C6.3325 204.771 6.875 205.313 6.875 205.98C6.875 206.017 6.87344 206.053 6.87 206.09L6.73156 207.612C6.92969 207.649 7.12125 207.726 7.28312 207.846C7.33906 207.888 7.38875 207.936 7.4425 207.98C7.47031 207.952 7.49969 207.925 7.53 207.899C7.51219 207.795 7.5 207.689 7.5 207.583C7.5 207.186 7.62375 206.807 7.85313 206.489C7.62375 206.172 7.5 205.793 7.5 205.396C7.5 204.326 8.40531 203.459 9.48406 203.524C9.68469 202.949 10.1525 202.516 10.7275 202.349C11.1081 201.874 11.6819 201.61 12.2966 201.649C12.5553 200.908 13.2559 200.396 14.0625 200.396C14.7391 200.396 15.355 200.758 15.6869 201.334C16.5144 201.362 17.2297 201.946 17.4347 202.742C18.4022 203.103 19.0625 204.039 19.0625 205.083C19.0625 205.92 18.6506 206.686 17.9691 207.148C18.0719 207.383 18.125 207.637 18.125 207.896C18.125 208.458 17.875 208.981 17.4459 209.335C17.4819 209.48 17.5 209.626 17.5 209.771C17.5 210.728 16.7781 211.521 15.85 211.632L15.1588 213.568C15.5128 213.829 15.8144 214.156 16.0466 214.531L17.6837 214.167C17.7459 214.153 17.81 214.146 17.8744 214.146C18.3572 214.146 18.75 214.539 18.75 215.021V215.145C18.75 215.233 18.7331 215.316 18.7091 215.396H18.75C19.2669 215.396 19.6875 215.816 19.6875 216.333C19.6875 216.85 19.2669 217.271 18.75 217.271H18.7091C18.7331 217.351 18.75 217.434 18.75 217.521V217.645C18.75 218.128 18.3572 218.521 17.8744 218.521C17.81 218.521 17.7459 218.514 17.6844 218.5L16.0466 218.136C15.44 219.115 14.3591 219.771 13.125 219.771H13.0516C12.8778 219.771 12.7019 219.757 12.5291 219.731L1.81312 218.082C0.943748 217.948 0.3125 217.213 0.3125 216.333C0.3125 215.63 0.719688 215.024 1.32594 214.739C0.678438 213.966 0.3125 212.984 0.3125 211.974V211.317ZM4.30219 208.345C3.36938 209.058 2.8125 210.194 2.8125 211.384V212.532C2.8125 213.173 2.97219 213.8 3.27312 214.36L5.77906 213.974C5.88219 213.521 5.9375 213.058 5.9375 212.593V211.324C5.9375 211.009 5.90594 210.694 5.85812 210.382C5.78156 210.389 5.70531 210.396 5.625 210.396C4.73406 210.396 4.0625 209.993 4.0625 209.458C4.0625 209.163 4.26656 208.901 4.62 208.729L4.57406 208.224C4.47656 208.244 4.38281 208.283 4.30219 208.345ZM5.66563 205.396H5.58406C5.26188 205.396 4.99969 205.658 4.99969 205.98C4.99969 205.998 5.00031 206.016 5.00219 206.033L5.28594 209.154L5.0475 209.231C4.77375 209.318 4.6875 209.434 4.6875 209.458C4.6875 209.536 5.02 209.771 5.625 209.771C6.23 209.771 6.5625 209.536 6.5625 209.458C6.5625 209.434 6.47625 209.318 6.2025 209.23L5.96406 209.154L6.24781 206.033C6.24938 206.015 6.25 205.998 6.25 205.98C6.25 205.658 5.98781 205.396 5.66563 205.396ZM6.675 208.234L6.63 208.729C6.98344 208.901 7.1875 209.163 7.1875 209.458C7.1875 209.803 6.90656 210.09 6.47 210.253C6.52594 210.608 6.5625 210.966 6.5625 211.324V212.593C6.5625 213.022 6.52125 213.451 6.44125 213.872L8.28344 213.589C8.38375 213.245 8.4375 212.891 8.4375 212.532V211.384C8.4375 210.196 7.86625 209.06 6.90938 208.347C6.83969 208.295 6.75938 208.257 6.675 208.234ZM10.0522 213.317C10.2219 212.887 10.3125 212.438 10.3125 211.974V211.317C10.3125 210.154 9.7475 209.043 8.80156 208.344C8.68281 208.256 8.53531 208.208 8.38656 208.208C8.19781 208.208 8.02406 208.284 7.89688 208.411C8.63375 209.219 9.0625 210.279 9.0625 211.384V212.532C9.0625 212.854 9.02406 213.173 8.95437 213.486L10.0522 213.317ZM10.0228 203.927L9.96594 204.249L9.64719 204.178C9.55031 204.156 9.46125 204.146 9.375 204.146C8.68563 204.146 8.125 204.706 8.125 205.396C8.125 205.724 8.2525 206.035 8.48375 206.27L8.69875 206.489L8.48375 206.709C8.2525 206.944 8.125 207.255 8.125 207.583C8.125 207.593 8.12687 207.602 8.12687 207.612C8.21156 207.595 8.29781 207.583 8.38656 207.583C8.66813 207.583 8.9475 207.675 9.17281 207.841C9.74156 208.261 10.1894 208.81 10.4931 209.429C10.6116 209.06 10.7359 208.707 10.8641 208.371C10.575 206.844 9.50281 205.961 9.49187 205.952L9.6875 205.708L9.88281 205.464C9.92625 205.499 10.7716 206.189 11.2463 207.434C11.8966 205.941 12.5103 204.975 12.5497 204.914L13.0756 205.252C13.0672 205.265 12.5906 206.015 12.0359 207.208C12.9706 206.856 14.0328 206.954 14.0938 206.96L14.0316 207.582C13.5616 207.534 12.2303 207.557 11.6084 208.192C11.3894 208.73 11.1734 209.321 10.9828 209.953C11.9328 209.466 13.0662 209.458 13.125 209.458V210.083C13.1103 210.083 11.7191 210.093 10.8956 210.747C10.9212 210.935 10.9375 211.125 10.9375 211.317V211.974C10.9375 212.397 10.8725 212.809 10.7519 213.209L12.5291 212.936C12.6228 212.922 12.7175 212.912 12.8125 212.905C13.5019 212.905 14.0625 212.34 14.0625 211.646C14.0625 211.5 14.0334 211.351 13.9766 211.201L13.8853 210.962L14.1019 210.825C14.4684 210.594 14.6875 210.199 14.6875 209.771C14.6875 209.525 14.6153 209.286 14.4788 209.081L14.2841 208.788L14.5972 208.629C15.2313 208.307 15.625 207.667 15.625 206.958C15.625 206.127 15.0662 205.386 14.2659 205.157L14.0719 205.101L14.0428 204.902C13.9538 204.293 13.4247 203.833 12.8125 203.833C12.8009 203.833 12.7897 203.836 12.7784 203.837C12.7566 203.84 12.7344 203.843 12.7122 203.845L12.4881 203.863L12.4 203.656C12.2028 203.194 11.7516 202.896 11.25 202.896C10.6444 202.896 10.1284 203.329 10.0228 203.927ZM15.4047 211.021H15.625C16.3144 211.021 16.875 210.46 16.875 209.771C16.875 209.625 16.8459 209.475 16.7891 209.326L16.6975 209.087L16.9141 208.95C17.2809 208.719 17.5 208.324 17.5 207.896C17.5 207.65 17.4278 207.411 17.2912 207.206L17.0966 206.913L17.4097 206.754C18.0438 206.432 18.4375 205.792 18.4375 205.083C18.4375 204.252 17.8788 203.511 17.0788 203.282L16.8847 203.226L16.8556 203.027C16.7662 202.418 16.2372 201.958 15.625 201.958C15.6131 201.958 15.6016 201.961 15.59 201.962C15.5687 201.965 15.5475 201.968 15.5256 201.97L15.3006 201.989L15.2122 201.781C15.0153 201.319 14.5641 201.021 14.0625 201.021C13.4569 201.021 12.9409 201.454 12.8353 202.052L12.7784 202.374L12.4597 202.303C12.3628 202.281 12.2737 202.271 12.1875 202.271C12.0437 202.271 11.9072 202.302 11.7766 202.348C12.2359 202.482 12.6316 202.787 12.8744 203.209C13.7019 203.237 14.4172 203.821 14.6222 204.617C15.5897 204.978 16.25 205.914 16.25 206.958C16.25 207.795 15.8381 208.561 15.1566 209.023C15.2594 209.258 15.3125 209.512 15.3125 209.771C15.3125 210.333 15.0625 210.856 14.6334 211.21C14.6694 211.355 14.6875 211.501 14.6875 211.646C14.6875 212.195 14.4513 212.688 14.0772 213.033C14.2628 213.086 14.4412 213.156 14.6125 213.239L15.4047 211.021ZM18.125 215.145V215.021C18.125 214.864 17.9731 214.744 17.8197 214.777L16.3325 215.107C16.3688 215.202 16.4012 215.298 16.4291 215.396H17.8744C18.0125 215.396 18.125 215.283 18.125 215.145ZM19.0625 216.333C19.0625 216.161 18.9222 216.021 18.75 216.021H17.8744H16.5469C16.5559 216.124 16.5625 216.228 16.5625 216.333C16.5625 216.439 16.5559 216.543 16.5466 216.646H17.8744H18.75C18.9222 216.646 19.0625 216.505 19.0625 216.333ZM17.8203 217.89C17.9684 217.922 18.125 217.802 18.125 217.645V217.521C18.125 217.383 18.0125 217.271 17.8744 217.271H16.4294C16.4016 217.369 16.3688 217.465 16.3328 217.559L17.8203 217.89ZM0.9375 216.333C0.9375 216.902 1.34562 217.378 1.90781 217.464L12.6234 219.113C12.7653 219.135 12.9094 219.146 13.0516 219.146H13.125C14.6756 219.146 15.9375 217.884 15.9375 216.333C15.9375 214.783 14.6756 213.521 13.125 213.521H13.0516C12.9094 213.521 12.7653 213.532 12.6237 213.553L1.90812 215.202C1.34562 215.289 0.9375 215.764 0.9375 216.333ZM0.9375 211.974C0.9375 212.935 1.32656 213.865 2.00344 214.555L2.62437 214.459C2.33906 213.86 2.1875 213.203 2.1875 212.532V211.384C2.1875 210.274 2.61062 209.208 3.3375 208.399C3.21125 208.28 3.04375 208.208 2.86344 208.208C2.71437 208.208 2.56719 208.256 2.44844 208.344C1.5025 209.043 0.9375 210.154 0.9375 211.317V211.974Z" fill="#121212"/>
<path d="M13.4375 214.771H12.8125V217.896H13.4375V214.771Z" fill="#121212"/>
<path d="M10.9375 214.771H10.3125V217.896H10.9375V214.771Z" fill="#121212"/>
<path d="M8.4375 214.771H7.8125V217.896H8.4375V214.771Z" fill="#121212"/>
<path d="M5.9375 215.396H5.3125V217.271H5.9375V215.396Z" fill="#121212"/>
<path d="M3.4375 215.708H2.8125V216.958H3.4375V215.708Z" fill="#121212"/>
</g>
<path d="M0.121876 158.872C0.138126 158.783 0.184729 158.702 0.25383 158.644C0.900703 158.097 1.00992 157.493 1.0977 157.008L1.10918 156.945C1.13949 156.78 1.27238 156.652 1.43895 156.629C1.49645 156.621 1.55731 156.617 1.61984 156.617C1.9916 156.617 2.51535 156.773 2.84742 157.123C2.90406 157.183 2.94043 157.259 2.95129 157.34C2.97922 157.55 2.9936 157.743 3.00625 157.912C3.0541 158.551 3.09641 158.618 3.29098 158.68C3.41293 158.719 3.50824 158.814 3.54617 158.937C3.72942 159.526 3.97258 160.091 4.26688 160.624C4.41223 160.346 4.57285 160.096 4.72235 159.864C5.08797 159.296 5.3768 158.847 5.27813 158.291C4.95836 156.489 5.12067 155.131 5.76066 154.256C6.11707 153.768 6.62481 153.436 7.24184 153.28C7.11902 152.322 6.45309 151.888 6.08445 151.789C5.87606 151.733 5.75238 151.519 5.80824 151.31C5.8641 151.102 6.07832 150.978 6.28664 151.034C7.04777 151.238 7.86078 151.987 8.01606 153.183C8.63949 153.181 9.2057 153.371 9.67164 153.744C10.523 154.424 11.0375 155.688 11.2006 157.501C11.2497 158.046 11.6026 158.365 12.0911 158.805C12.4898 159.165 12.9339 159.566 13.2897 160.173C13.7329 159.992 14.2083 159.875 14.7047 159.833C14.564 158.913 13.9169 158.493 13.5554 158.396C13.347 158.34 13.2234 158.126 13.2792 157.918C13.3351 157.709 13.5493 157.585 13.7576 157.641C13.9539 157.694 14.1536 157.783 14.3446 157.907C14.4335 157.468 14.6485 157.056 14.974 156.731C15.4102 156.295 15.9902 156.055 16.607 156.055C16.8089 156.055 17.01 156.081 17.2048 156.133C17.3398 156.169 17.4453 156.274 17.4814 156.41C17.6936 157.204 17.4645 158.059 16.8834 158.64C16.479 159.045 15.9509 159.28 15.3845 159.312C15.4339 159.474 15.4706 159.646 15.492 159.829C18.0095 160.018 20 162.126 20 164.691C20 167.38 17.8123 169.568 15.1233 169.568C14.1239 169.568 13.172 169.271 12.357 168.708C12.2287 168.764 12.0999 168.818 11.9705 168.869C10.7949 169.333 9.60676 169.568 8.43922 169.568C6.56125 169.568 4.81828 168.955 3.39875 167.794C1.91504 166.58 0.821526 164.785 0.236525 162.601C0.0456257 161.889 -0.122772 160.211 0.121876 158.872ZM11.5679 159.385C11.0424 158.911 10.4991 158.421 10.4225 157.571C10.2792 155.978 9.8625 154.896 9.18395 154.354C8.78113 154.032 8.28324 153.908 7.70395 153.985C7.13184 154.062 6.6902 154.308 6.39133 154.717C5.88196 155.413 5.76621 156.57 6.04738 158.155C6.19961 159.013 5.78258 159.661 5.3793 160.287C5.15328 160.638 4.92063 161 4.76242 161.422C6.07895 163.323 8.07664 164.709 10.2748 165.217C10.2561 165.043 10.2465 164.867 10.2465 164.691C10.2465 162.929 11.186 161.383 12.5903 160.526C12.298 160.045 11.928 159.71 11.5679 159.385ZM16.331 158.088C16.6592 157.76 16.8177 157.299 16.7698 156.844C16.7158 156.839 16.6616 156.836 16.6071 156.836C16.1989 156.836 15.8152 156.995 15.5266 157.283C15.1984 157.612 15.0398 158.072 15.0877 158.527C15.1417 158.532 15.196 158.535 15.2503 158.535H15.2504C15.6587 158.535 16.0424 158.376 16.331 158.088ZM15.1233 168.787C17.3816 168.787 19.2188 166.95 19.2188 164.691C19.2188 162.433 17.3816 160.596 15.1233 160.596C12.865 160.596 11.0278 162.433 11.0278 164.691C11.0278 164.917 11.0462 165.141 11.0826 165.363C11.3339 165.395 11.5869 165.416 11.8411 165.424C11.7875 165.185 11.7596 164.94 11.7596 164.691C11.7596 164.252 11.8442 163.822 12.0111 163.415C12.093 163.216 12.3211 163.12 12.5208 163.202C12.7204 163.284 12.8158 163.512 12.7339 163.712C12.6058 164.024 12.5408 164.354 12.5408 164.691C12.5408 164.937 12.5756 165.178 12.6437 165.412C13.2027 165.376 13.7626 165.284 14.3143 165.136C14.4266 165.106 14.5466 165.127 14.6415 165.195C14.9887 165.441 15.3386 165.751 15.5461 166.346C15.5996 166.499 15.5528 166.669 15.4285 166.773C14.7109 167.376 13.9612 167.887 13.1889 168.302C13.7801 168.62 14.4383 168.787 15.1233 168.787ZM0.991135 162.399C2.06289 166.399 4.84719 168.787 8.43918 168.787C10.5361 168.787 12.7496 167.927 14.7006 166.36C14.5972 166.175 14.4693 166.047 14.332 165.938C13.5984 166.119 12.8525 166.211 12.1118 166.211C10.0153 166.211 7.99387 165.496 6.26598 164.145C5.3875 163.457 4.62613 162.629 4.01625 161.711C4.00899 161.701 4.00215 161.691 3.99586 161.681C3.51442 160.95 3.12879 160.163 2.85684 159.345C2.30938 159.07 2.26762 158.512 2.22711 157.97C2.21785 157.847 2.20836 157.72 2.19387 157.586C2.08996 157.511 1.95227 157.451 1.81422 157.42C1.71012 157.917 1.5077 158.555 0.868048 159.143C0.687071 160.294 0.818478 161.755 0.991135 162.399Z" fill="#86BC42"/>
<path d="M7.40206 154.789C7.60088 154.706 7.82991 154.8 7.91335 154.999C7.99679 155.198 7.90315 155.426 7.70417 155.51C7.41999 155.629 7.26307 156.486 7.51299 157.895C7.55069 158.107 7.40905 158.31 7.19659 158.348C7.1735 158.352 7.15053 158.354 7.12787 158.354C6.94205 158.354 6.77729 158.221 6.74369 158.031C6.52018 156.772 6.45299 155.187 7.40206 154.789Z" fill="#86BC42"/>
<path d="M4.82045 165.97C4.94986 165.797 5.19513 165.763 5.36771 165.892C5.36787 165.892 5.36955 165.893 5.36966 165.893C5.54365 166.021 5.58072 166.265 5.45349 166.439C5.37712 166.543 5.2583 166.598 5.13787 166.598C5.05763 166.598 4.97666 166.574 4.90705 166.523L4.8981 166.516C4.72553 166.387 4.691 166.142 4.82045 165.97Z" fill="#86BC42"/>
<path d="M5.71619 166.602C5.81451 166.41 6.04983 166.333 6.2419 166.432C7.57889 167.116 8.7069 167.089 8.72354 167.088C8.93827 167.08 9.11968 167.248 9.12811 167.463C9.13655 167.678 8.96866 167.86 8.75307 167.869C8.7471 167.869 8.72608 167.869 8.6912 167.869C8.41202 167.869 7.24846 167.824 5.88612 167.127C5.69404 167.029 5.61799 166.794 5.71619 166.602Z" fill="#86BC42"/>
<path d="M12.7329 162.325L12.7458 162.312C12.8987 162.16 13.146 162.161 13.2982 162.314C13.4503 162.467 13.4497 162.714 13.2967 162.866L13.2883 162.874C13.2119 162.952 13.1113 162.99 13.0106 162.99C12.9114 162.99 12.812 162.953 12.7359 162.877C12.5825 162.726 12.5812 162.478 12.7329 162.325Z" fill="#86BC42"/>
<defs>
<clipPath id="clip0_102_82">
<rect width="20" height="19.9155" fill="white" transform="matrix(-1 0 0 1 20 349.449)"/>
</clipPath>
<clipPath id="clip1_102_82">
<rect width="20" height="19.9155" fill="white" transform="matrix(-1 0 0 1 20 299.661)"/>
</clipPath>
<clipPath id="clip2_102_82">
<rect width="20" height="19.9155" fill="white" transform="matrix(-1 0 0 1 20 498.816)"/>
</clipPath>
<clipPath id="clip3_102_82">
<rect width="20" height="19.9155" fill="white" transform="matrix(-1 0 0 1 20 399.238)"/>
</clipPath>
<clipPath id="clip4_102_82">
<rect width="20" height="19.9155" fill="white" transform="matrix(-1 0 0 1 20 249.872)"/>
</clipPath>
<clipPath id="clip5_102_82">
<rect width="20" height="19.9155" fill="white" transform="matrix(-1 0 0 1 20 50.7169)"/>
</clipPath>
<clipPath id="clip6_102_82">
<rect width="20" height="19.9155" fill="white" transform="matrix(-1 0 0 1 20 100.506)"/>
</clipPath>
<clipPath id="clip7_102_82">
<rect width="20" height="19.9155" fill="white" transform="matrix(-1 0 0 1 20 0.928192)"/>
</clipPath>
<clipPath id="clip8_102_82">
<rect width="20" height="19.9155" fill="white" transform="matrix(-1 0 0 1 20 200.083)"/>
</clipPath>
</defs>
</svg>
