<svg width="18" height="21" viewBox="0 0 18 21" fill="none" xmlns="http://www.w3.org/2000/svg">
<path d="M0.816776 11.8479C0.980058 11.4537 1.34654 11.2088 1.77318 11.2088H2.51525V0.896332C2.51525 0.680629 2.69014 0.505707 2.90588 0.505707H7.24181C7.45756 0.505707 7.63244 0.680629 7.63244 0.896332C7.63244 1.11203 7.45756 1.28696 7.24181 1.28696H3.2965V11.5995C3.2965 11.8152 3.12162 11.9901 2.90588 11.9901H1.77318C1.62002 11.9901 1.55807 12.0997 1.53853 12.1469C1.519 12.194 1.48529 12.3154 1.59357 12.4236L8.82006 19.6501C8.91904 19.7491 9.08021 19.7491 9.1792 19.6501L16.4056 12.4236C16.5139 12.3154 16.4802 12.194 16.4607 12.1469C16.4411 12.0997 16.3792 11.9901 16.226 11.9901H15.0934C14.8776 11.9901 14.7028 11.8152 14.7028 11.5995V1.28696H10.7574C10.5417 1.28696 10.3668 1.11203 10.3668 0.896332C10.3668 0.680629 10.5417 0.505707 10.7574 0.505707H15.0934C15.3091 0.505707 15.484 0.680629 15.484 0.896332V11.2088H16.2261C16.6528 11.2088 17.0192 11.4537 17.1825 11.8479C17.3458 12.2421 17.2598 12.6743 16.9581 12.9761L9.73166 20.2025C9.53611 20.398 9.27615 20.5057 8.99963 20.5057C8.7231 20.5057 8.46314 20.398 8.2676 20.2025L1.04115 12.9761C0.73951 12.6744 0.653495 12.2421 0.816776 11.8479V11.8479Z" fill="#121212"/>
<path d="M10.245 7.94272C10.19 7.96944 10.1319 7.98205 10.0747 7.98205C9.92979 7.98205 9.79057 7.90108 9.72299 7.76198L7.57362 3.33596C7.47936 3.1419 7.5603 2.90819 7.75436 2.81397C7.94854 2.71963 8.18217 2.80065 8.27639 2.99471L10.4258 7.42073C10.52 7.61475 10.4391 7.8485 10.245 7.94272V7.94272Z" fill="#121212"/>
<path d="M6.99145 5.64143C7.68071 5.64143 8.24146 6.20218 8.24146 6.89143C8.24146 7.58069 7.68071 8.14143 6.99145 8.14143C6.30219 8.14143 5.74145 7.58069 5.74145 6.89143C5.74145 6.20218 6.30219 5.64143 6.99145 5.64143ZM6.99145 7.36018C7.24993 7.36018 7.4602 7.14991 7.4602 6.89143C7.4602 6.63296 7.24993 6.42268 6.99145 6.42268C6.73297 6.42268 6.5227 6.63296 6.5227 6.89143C6.5227 7.14991 6.73297 7.36018 6.99145 7.36018Z" fill="#121212"/>
<path d="M12.2581 3.8653C12.2581 4.55455 11.6973 5.1153 11.0081 5.1153C10.3188 5.1153 9.75806 4.55455 9.75806 3.8653C9.75806 3.17604 10.3188 2.6153 11.0081 2.6153C11.6973 2.6153 12.2581 3.17604 12.2581 3.8653ZM10.5393 3.8653C10.5393 4.12377 10.7496 4.33405 11.0081 4.33405C11.2665 4.33405 11.4768 4.12377 11.4768 3.8653C11.4768 3.60682 11.2665 3.39655 11.0081 3.39655C10.7496 3.39655 10.5393 3.60682 10.5393 3.8653Z" fill="#121212"/>
<path d="M7.43728 10.9127C7.22153 10.9127 7.04665 10.7378 7.04665 10.5221C7.04665 10.3064 7.22153 10.1314 7.43728 10.1314H8.69458C8.91032 10.1314 9.08521 10.3064 9.08521 10.5221V13.6242C9.08521 13.8399 8.91032 14.0148 8.69458 14.0148C8.47884 14.0148 8.30396 13.8399 8.30396 13.6242V12.4344H7.53716C7.32142 12.4344 7.14653 12.2594 7.14653 12.0437C7.14653 11.828 7.32142 11.6531 7.53716 11.6531H8.30396V10.9127H7.43728Z" fill="#121212"/>
<path d="M11.8196 10.1201C12.8965 10.1201 13.7727 10.9962 13.7727 12.0732C13.7727 13.1501 12.8965 14.0263 11.8196 14.0263C10.7426 14.0263 9.86646 13.1501 9.86646 12.0732C9.86646 10.9962 10.7426 10.1201 11.8196 10.1201ZM11.8196 13.2451C12.4658 13.2451 12.9915 12.7194 12.9915 12.0732C12.9915 11.427 12.4658 10.9013 11.8196 10.9013C11.1734 10.9013 10.6477 11.427 10.6477 12.0732C10.6477 12.7194 11.1734 13.2451 11.8196 13.2451Z" fill="#121212"/>
<path d="M4.61769 10.9127C4.40195 10.9127 4.22707 10.7378 4.22707 10.5221C4.22707 10.3064 4.40195 10.1314 4.61769 10.1314H5.875C6.09074 10.1314 6.26562 10.3064 6.26562 10.5221V13.6242C6.26562 13.8399 6.09074 14.0148 5.875 14.0148C5.65926 14.0148 5.48437 13.8399 5.48437 13.6242V12.4344H4.71758C4.50183 12.4344 4.32695 12.2594 4.32695 12.0437C4.32695 11.828 4.50183 11.6531 4.71758 11.6531H5.48437V10.9127H4.61769Z" fill="#121212"/>
<path d="M9 1.28696C8.89727 1.28696 8.79648 1.24516 8.72383 1.17246C8.65117 1.09985 8.60938 0.999066 8.60938 0.896332C8.60938 0.793597 8.65117 0.692816 8.72383 0.62016C8.79648 0.547504 8.89727 0.505707 9 0.505707C9.10273 0.505707 9.20352 0.547465 9.27617 0.62016C9.34883 0.692816 9.39062 0.793597 9.39062 0.896332C9.39062 0.999066 9.34883 1.09985 9.27617 1.17246C9.20352 1.24516 9.10273 1.28696 9 1.28696Z" fill="#121212"/>
</svg>
